<svg xmlns="http://www.w3.org/2000/svg" xmlns:xlink="http://www.w3.org/1999/xlink" width="13447.18" height="3374.76" viewBox="0 0 13447.18 3374.76"><defs><style>.a{fill:none;}.b,.e{fill:#fff;}.c{fill:#009ee2;}.d{clip-path:url(#a);}.e{opacity:0.35;}</style><clipPath id="a" transform="translate(-492.17 -2759.41)"><circle class="a" cx="1314.58" cy="3426.9" r="602.29"/></clipPath></defs><path class="b" d="M742.37,5334.18H2356.66c477.8,0,865.21-387.33,865.21-865.13a30.09,30.09,0,0,1,53.18-19.37L3700.73,4957a30.06,30.06,0,0,0,42.4,3.72,27.82,27.82,0,0,0,3.72-3.72l425.68-507.27a30.11,30.11,0,0,1,53.18,19.37v835a30.09,30.09,0,0,0,30.08,30.1h943.64a30.09,30.09,0,0,0,30.08-30.1V4586a30.12,30.12,0,0,1,53.19-19.34l635.06,756.8a30.1,30.1,0,0,0,23.06,10.74H7172.63a30.09,30.09,0,0,0,23.05-49.47l-995.15-1186a30.19,30.19,0,0,1,0-38.71l995.15-1186a30.12,30.12,0,0,0-23.05-49.47H5940.82a30.06,30.06,0,0,0-23.06,10.77L5282.7,3592.16a30.12,30.12,0,0,1-53.19-19.32V2854.72a30.1,30.1,0,0,0-30.08-30.11H4239.76a30.23,30.23,0,0,0-23.1,10.77l-469.81,559.89a26.62,26.62,0,0,1-3.72,3.71,30.07,30.07,0,0,1-42.4-3.71l-469.86-559.89a30,30,0,0,0-23-10.77H2248.15a30.1,30.1,0,0,0-30.13,30.11V4230a100.4,100.4,0,0,1-100.37,100.39H742.37a30.08,30.08,0,0,0-30.07,30.13v943.59A30.05,30.05,0,0,0,742.37,5334.18Z" transform="translate(-492.17 -2759.41)"/><path class="c" d="M13932.29,4060l-774.87-923.51a30.23,30.23,0,0,0-23.11-10.76H7391.67a30,30,0,0,0-23.05,10.76L6593.7,4060a30,30,0,0,0,0,38.71l774.92,923.53a30.05,30.05,0,0,0,23.05,10.77h5742.64a30.24,30.24,0,0,0,23.11-10.77l774.87-923.53A30.07,30.07,0,0,0,13932.29,4060ZM8526.17,4491.47,7931.11,4179H7699.84V4038.66h678q89.4,0,122.1-13.8t32.88-51.2V3876.1q0-35-32.88-49.42t-122.1-14.4H7605.74v679.19H7269.07V3667.33H8530q176.19,0,255.18,38.27t79.09,123.52v191.52q0,82.21-79.09,120.31T8530,4179H8337.3l681.89,312.45Zm928.12,0H9112.48V3667.33h341.81Zm2013.52-209.08q-85.12,92.14-239.92,145.71-96.26,34.13-239.3,48.71t-366.19,14.66h-425.63v-154h351.37q355.6,0,504.17-61.43,148.41-61.45,148.51-202.61,0-126.51-123.27-191.57-123.43-65.12-364.15-65.1h-610.56v674.67H9761V3667.33h949.67q405.69,0,624,106.06T11553,4074.54Q11553,4190.42,11467.81,4282.39Zm1789.06,209.08H11734.2V3667.33h1507.19v140.42H12076v529.76h1180.86Zm-88-498.11v140.42h-998.71V3993.36Z" transform="translate(-492.17 -2759.41)"/><path class="b" d="M13819.36,4972.21c0,99.55-78.14,177.69-179.84,177.69-100.61,0-180.9-78.14-180.9-177.69,0-97.41,80.29-175.55,180.9-175.55C13741.22,4796.66,13819.36,4874.8,13819.36,4972.21Zm-315.77,0c0,78.14,57.79,140.22,137,140.22,77.06,0,133.81-62.08,133.81-139.16,0-78.14-56.75-141.29-134.89-141.29S13503.59,4895.13,13503.59,4972.21Zm108.1,92.05H13571V4888.71c16-3.21,38.54-5.35,67.44-5.35,33.17,0,48.16,5.35,61,12.84,9.65,7.5,17.14,21.41,17.14,38.54,0,19.27-15,34.26-36.4,40.68v2.15c17.13,6.42,26.77,19.26,32.12,42.8,5.34,26.77,8.55,37.47,12.85,43.89h-43.89c-5.36-6.42-8.57-22.48-13.92-42.81-3.21-19.26-13.91-27.83-36.4-27.83h-19.27Zm1.08-99.55H13632c22.47,0,40.67-7.49,40.67-25.69,0-16.05-11.78-26.75-37.46-26.75-10.72,0-18.2,1.06-22.48,2.13Z" transform="translate(-492.17 -2759.41)"/><path class="b" d="M1921.85,5656.05h523.64c93.46,0,136.06,26,136.06,92.68v113c0,65.56-42.6,91.55-136.06,91.55h-79.71L2642,6134.16H2438.62l-243.27-180.85H2062v180.85H1921.85ZM2062,5738.56V5870.8h323c42.6,0,64.59-6.78,64.59-38.43V5777c0-31.65-22-38.43-64.59-38.43Z" transform="translate(-492.17 -2759.41)"/><path class="b" d="M4368.2,5742v100.6h378c115.45,0,151.18,22.6,151.18,113v65.55c0,89.3-35.73,113-151.18,113h-378c-115.44,0-152.55-23.73-152.55-113v-13.56l126.44-19.22v56.52h427.43V5935.23H4392.94c-114.07,0-152.55-22.61-152.55-113v-53.12c0-90.43,38.48-113,152.55-113h345c107.2,0,152.56,20.34,152.56,104v11.31l-122.32,21.47V5742Z" transform="translate(-492.17 -2759.41)"/><path class="b" d="M5056.76,5656.05H5199.7v193.28l339.47-193.28H5744l-401.32,221.54,446.67,256.57h-224L5199.7,5918.28v215.88H5056.76Z" transform="translate(-492.17 -2759.41)"/><path class="b" d="M6869.56,6134.16H6728V5742H6447.63v-85.9h703.68V5742H6869.56Z" transform="translate(-492.17 -2759.41)"/><path class="b" d="M10091.06,5656.05h141.56v478.11h-141.56Z" transform="translate(-492.17 -2759.41)"/><path class="b" d="M10405.77,5656.05h97.58l493.4,317.61V5656.05h127.82v478.11H11027L10535,5812v322.13h-129.19Z" transform="translate(-492.17 -2759.41)"/><path class="b" d="M13362,5953.31h79.71c93.46,0,136.06-26,136.06-91.55v-113c0-66.69-42.6-92.68-136.06-92.68h-523.64v478.11h140.19v-395.6h323c42.6,0,64.59,6.78,64.59,38.43v55.38c0,31.65-22,38.43-64.59,38.43h-276.69v82.51h87l243.27,180.85h203.41Z" transform="translate(-492.17 -2759.41)"/><path class="b" d="M8443,5953.31h79.71c93.46,0,136.06-26,136.06-91.55v-113c0-66.69-42.6-92.68-136.06-92.68H7999.08v478.11h140.19v-395.6h323c42.6,0,64.59,6.78,64.59,38.43v55.38c0,31.65-22,38.43-64.59,38.43H8185.56v82.51h87l243.27,180.85h203.41Z" transform="translate(-492.17 -2759.41)"/><polygon class="b" points="11818.45 3285.46 11818.45 3167.91 11818.45 3085.4 11818.45 2981.41 12299.48 2981.41 12299.48 2896.64 11675.52 2896.64 11675.52 3374.76 12306.36 3374.76 12306.36 3285.46 11818.45 3285.46"/><rect class="b" x="11865.04" y="3085.4" width="233.79" height="82.51"/><polygon class="b" points="6899.45 3285.46 6899.45 3167.91 6899.45 3085.4 6899.45 2981.41 7380.48 2981.41 7380.48 2896.64 6756.52 2896.64 6756.52 3374.76 7387.36 3374.76 7387.36 3285.46 6899.45 3285.46"/><rect class="b" x="6946.04" y="3085.4" width="233.79" height="82.51"/><polygon class="b" points="3131.45 3285.46 3131.45 3167.91 3131.45 3085.4 3131.45 2981.41 3612.48 2981.41 3612.48 2896.64 2988.52 2896.64 2988.52 3374.76 3619.36 3374.76 3619.36 3285.46 3131.45 3285.46"/><rect class="b" x="3178.04" y="3085.4" width="233.79" height="82.51"/><polygon class="b" points="2380.45 3285.46 2380.45 3167.91 2380.45 3085.4 2380.45 2981.41 2861.48 2981.41 2861.48 2896.64 2237.52 2896.64 2237.52 3374.76 2868.36 3374.76 2868.36 3285.46 2380.45 3285.46"/><rect class="b" x="2427.04" y="3085.4" width="233.79" height="82.51"/><path class="b" d="M11690.8,5656.05h-391.7v478.11H11442V5742h250.13c134.69,0,202,46.34,202,145.81,0,124.33-89.34,157.11-269.38,157.11H11489v89.29h166.11c255.63,0,384.82-79.12,384.82-240.75C12039.89,5745.34,11920.32,5656.05,11690.8,5656.05Z" transform="translate(-492.17 -2759.41)"/><polygon class="b" points="8814.13 2791.52 8814.13 3374.76 8979.05 3374.76 8979.05 3153.22 8979.05 3046.97 8979.05 2893.25 9531.55 2893.25 9531.55 2791.52 8814.13 2791.52"/><rect class="b" x="9026.81" y="3046.97" width="250.48" height="106.25"/><polygon class="b" points="703.13 2791.52 703.13 3374.76 868.05 3374.76 868.05 3153.22 868.05 3046.97 868.05 2893.25 1420.55 2893.25 1420.55 2791.52 703.13 2791.52"/><rect class="b" x="915.81" y="3046.97" width="250.48" height="106.25"/><polygon class="b" points="5698.45 2896.64 5562.39 2896.64 5217.42 3374.76 5358.98 3374.76 5431.82 3269.64 5492.29 3182.61 5622.86 2983.67 5758.92 3182.61 5538.61 3182.61 5538.61 3269.64 5816.65 3269.64 5889.49 3374.76 6048.91 3374.76 5698.45 2896.64"/><circle class="c" cx="822.41" cy="667.49" r="602.29"/><g class="d"><circle class="e" cx="954.39" cy="580" r="580"/><path class="b" d="M1156.76,2916a5.71,5.71,0,0,0-2.19,1.15,5.84,5.84,0,0,1-4.34,1.6c-1.36-.17-4.28.81-6.5,2.18a19.92,19.92,0,0,1-5.65,2.6c-1.51.1-7.6,6-11.3,11-.93,1.25-4.66,2.8-8.3,3.45-4.86.86-7.08,2-8.25,4-1,1.84-3.46,3.32-7.1,4.37a27.82,27.82,0,0,0-7.78,3.43c-1.25,1-5.1,2.69-8.56,3.76l-6.31,2,4.94-.27c2.73-.15,4.09.56,3,1.56a3.69,3.69,0,0,0-.61,4.35c1.13,1.93,2.45,1.83,5.66-.61,2.79-2.11,4.75-2.77,5.89-1.89,9.57,3.52,17.63-2.41,25.88-6.89,8.51-5.5,12.17-7.23,12.41-5.85.54,3-6.42,8.22-21.65,16.07-9.74,5-14,6.51-15.8,5.58-2.61-1.34-8.78,1.38-11,4.8s5.23,8.66,9.5,6.55c5.23-2.59,4.78.74-.68,4.91-6,4.62-21.9,5-19,.49,1.18-1.81,1.61-4.26,1-5.41s.33-3.68,2.14-5.65,2.49-3.22,1.48-2.77c-2.16,1-6.16,0-7.79-2-2.28-2.71-3.57-2.85-7.55-.65-3.46,1.92-3.91,2.43-3,3.58,1.06,1.34.34,1.84-6.19,4a30,30,0,0,0-6.74,4.51c-5.54,4.69-4.52,8.05,1.93,6.56,2.42-.56,4.89-.31,5.57.47,1,1.12-.24,2-5.78,4.36-5.7,2.37-6.84,3.22-5.58,4.24.86.7.5,2.29-.85,3.56s.67,1.55,4.65.62a31.81,31.81,0,0,0,13.35-6.8c4.74-4,6.34-4.72,7-3.24a14.38,14.38,0,0,0,4.06,4.28c1.8,1.31,2.84,3.37,2.24,4.56-1.82,3.64-8.13,5-8.9,2-.39-1.57.12-3,1.14-3.23a1.28,1.28,0,0,1,1.6,1.56c-.14,1.08,1.14,1.67,2.83,1.31,2.37-.51,2.58-1.28,1-3.34-1.67-2.21-3.1-2-8.5,1.09-5.86,3.34-6.41,3.89-4.74,5.19,2,1.52-1.28,5.74-5.06,6.5-1.32.27-.51-.68,2-2.33,2.27-1.5,3.29-2.55,2.28-2.33-3,.66-10,5.61-9.63,6.89.17.65,7.42,0,16.12-1.41s16-2,16.17-1.47c.43,1.33,1.26,1.07,10-3.3,8-4,12.43-8.38,5.56-5.4-5.43,2.36-12.06-.41-8.81-3.69a8.6,8.6,0,0,1,6.32-2.21c2.19.27,7-1.56,11.77-4.48,4.41-2.72,9.51-5.84,11.42-7a25.18,25.18,0,0,0,5.92-5.2c1.78-2.28,1-2.49-2.8-.81-2.9,1.28-5.42,1.75-5.61,1.09-.58-2.13,7-8,11.52-9,2.39-.49,4.4-1.76,4.49-2.8.31-3.36,4.52-5,8.78-3.38,3.41,1.3,4.74,1,7.48-2,1.83-2,11.71-8.75,21.71-15s17.12-11.14,16-11a12.13,12.13,0,0,1-4.35-.47c-1.8-.54-2.16-.26-1.31,1s-.38,2.57-5.43,5.27c-6.92,3.69-8.79,2.08-3-2.64a113.22,113.22,0,0,1,12.9-7.77c12.61-6.72,21.53-12.41,22.43-14.18.4-.8-.48-2.71-1.94-4.19-1.92-1.94-4.26-1.82-8.62.38-6.64,3.36-10.36,3.13-7-.51,3.17-3.47-4-3.45-14.43.16-5,1.75-12,3.11-15.39,3.09a22,22,0,0,0-5,.58c-.37.09-.69.16-1,.27Zm154.8-31.24c-4.38.69-7.92,2.37-7.79,4,.33,4.15-5.59,5.65-9.46,2.47-2.89-2.37-4.91-2.41-8.37-.14-3.16,2.06-4.88,2.32-5.39.8-1-2.91-6.61.54-8.47,5.13-1.92,4.75.83,4.21,4-.81,2.15-3.38,2.72-3.3,4.33.89,1.25,3.29,1,5.89-.73,7.9-2.26,2.56-10.92,4.2-18.56,3.66-5.73-.4-11.73,2.22-12.22,5.27-.71,4.53-4.79,7-5.48,3.31s-3.21-3.69-4.37.16c-.6,2-3.62,3.1-10.73,3.93-9.39,1.1-22.87,7.74-22,10.76.6,2-7.47,9.46-9.36,8.65-.94-.4-2.61.29-3.72,1.55s-2.76,2-3.66,1.61c-2.14-.91-19.84,10.19-18.49,11.58.57.59,4-.33,7.62-2,8.64-4.09,8.37-1.2-.84,8.4-5.1,5.31-9,8-12.41,8.59-2.75.49-6,2.08-7.3,3.47s-2.78,2-3.36,1.46c-1.39-1.35-16.11,5.95-17.51,8.66-1.1,2.11.86,2.15,13.9.26,3.91-.57,6.86.18,6.53,1.68-.66,3-2.55,4.1-14.73,8.44-7.43,2.65-7.9,3-4.34,3.62,2.18.37,3.14,1.63,2.1,2.79-2.8,3.15,3.47,4.49,8.7,1.87,2.51-1.25,11.37-3.53,19.71-5s16.07-3.34,17.12-4.07,1.87,1.43,1.94,4.78a24.17,24.17,0,0,0,2.51,10c1.29,2.14,1.89,5.16,1.32,6.68s0,4.36,1.23,6.32c1.57,2.48,1.26,5.69-1,10.54-3.8,8-1,9.16,3.33,1.36,2.32-4.22,3.2-4.74,4.74-2.73,4.5,5.85.19,14.26-9.49,17.76-3,1.1-2.47,1.43,1.75,1.15,3.39-.23,7,1.41,8.14,3.59,1.9,3.71,1.76,4.29-3.28,8.65s-5.29,4.75-2.76,7.25,2.19,2.94-3.71,5.7c-3.53,1.66-6.8,4.21-7.24,5.69-.59,1.95.28,1.83,3.1-.44,6.18-5,8.38-1.21,2.62,4.45-2.68,2.64-4,4.76-3,4.7s-.25,1.52-2.85,3.48c-3.05,2.3-4.05,4-2.87,4.9,1,.74.83,2.65-.43,4.25-1.45,1.86-.78,1.68,1.94-.46,4.81-3.79,6.74-1.25,2.81,3.69-1.63,2.07-1.4,6.64.82,12.5,4.87,12.83,9.75,17.82,16.61,17.46,3.22-.17,5.68,1,5.47,2.6s-.37,3.54-.38,4.25c0,2.76,15-8.19,16-11.64a87.35,87.35,0,0,0,1.75-8.74c.41-2.8,1.9-5.86,3.35-6.81s2.83-4.13,3.59-6.09c3.11-8,16.66-20.85,26.54-23.93.92.69,4.69-.26,8.33-2.05a21.73,21.73,0,0,0,12.2-15c.53-2,2.06-3.42,3.41-3.19s4.73-1.83,7.49-4.57c4-4,7.61-5.1,17.87-5.56,7.92-.35,15.49-2.15,19.62-4.63a78.46,78.46,0,0,1,14.1-6.33l7.4-2.27-6.79-1.5c-3.73-.8-8.78-.7-11.29.13-5.37,1.79-7.88-2.84-2.86-5.26a7.19,7.19,0,0,0,3.61-5.59c.12-2.71,1.95-4.21,5.95-5,4.42-.87,5.75,0,5.94,3.82.29,6.05,5.55,6.29,6.51.3.9-5.63-8.51-12.73-14-10.43-5.77,2.43-8.57-.14-4.94-4.51,2.15-2.6,1.91-3.89-.82-5.74-4.85-3.29-1.32-7.73,5-6.37,4.19.9,5.25.34,5.68-3.14.75-6.09,7.25-6.07,12.75.13,2.49,2.81,6,5,7.77,4.92,2.48-.14,2.34-1-.54-3.71-4.72-4.49-2.46-8.09,5.28-8.55,5.7-.34,5.82-.53,2.85-3.69-1.73-1.83-2.23-3.56-1.15-3.83s-.44-1-3.37-1.66c-6.93-1.53-6.25-5.43,1.23-7.86l5.89-1.86-5.93.07c-3.26.06-6.25-.87-6.62-2.09-1.12-3.71,7.1-7.89,13.2-6.63,4.28.88,5.54.49,4.86-1.66-.5-1.58-1.43-2.26-2.09-1.51-2.2,2.48-7.54-3.23-6-6.48a6.85,6.85,0,0,0,0-5.67c-1.07-1.79,0-3.27,3.82-5.27,2.88-1.53,5.51-4.42,5.86-6.38a12.83,12.83,0,0,1,4.21-6.43c3-2.46,2.85-2.72-1.25-1.33-5.79,2-7.51,0-4-4.64,1.43-1.89,6-3.65,10.22-3.95,5.12-.35,7.66-1.47,7.7-3.44,0-1.62,1.91-3.49,4.14-4.09a34.62,34.62,0,0,0,9-4.54l4.8-3.45-6.59-1.25c-3.63-.67-8.11-.09-10,1.33-4.89,3.58-12.06,5.13-14.22,3.06-1-1-4.39,0-7.62,2.24-5.72,3.93-8.56,2.46-5.26-2.83,1.1-1.76-2.5-2.06-11-.71-9.28,1.48-16,4.24-25.17,10-7.18,4.54-13.66,7.38-15.11,6.67-3.65-1.78,0-4.76,17.06-14.75,9.71-5.66,17.9-9.06,23.3-9.58a38.61,38.61,0,0,0,14.78-5l6.41-4.19c-3.88.9-5.82,1.35-9.72,2.28-10.21,2.43-13.44,0-7.1-5.29-5.37-4.55-23.1,3.29-30.61,5.59-5.78,1.91-11,2.94-11.62,2.32-1.79-1.88,3.45-6.32,10.65-9.13,6.19-2.41,5.93-2.57-3-1.48-5.37.65-11.15,1.2-12.85,1.16a25.22,25.22,0,0,0-4.55.3ZM1265,2895.62c-1.77.4-4.19,2.72-4.17,4.67,0,1.11.7,1.92,1.5,1.79,2.32-.4,5.32-4.87,4.16-6.18a1.45,1.45,0,0,0-1.49-.28Zm-8.76,4.06a3.42,3.42,0,0,0-.88.49,5.47,5.47,0,0,0-2.13,3.7c0,1.13,1,1.27,2.19.36a5.44,5.44,0,0,0,2.11-3.7c0-.85-.52-1.13-1.29-.85ZM1393,2895.9c-1.8.24-3.78,2.47-3.23,4.58.31,1.2,1.26,2.15,2.09,2.08,2.38-.17,4.41-4.65,2.82-6.18a2,2,0,0,0-1.68-.48Zm316.75,12.51c-.9-.09-.62,1.58.84,4.8.53,1.16-.34,1.36-1.94.45-4-2.29-4.63.21-1,4.43,2.84,3.33,6.43,4.2,4.65,1.18.19-.13.3-.36.17-.76a1.79,1.79,0,0,0-.44-.56,10.82,10.82,0,0,1,.37-3.65c.66-2.3.2-4-1.34-5.22a2.91,2.91,0,0,0-1.29-.67Zm17,4.52c-1.76-.16-2.61,1.68-.91,3.94a7,7,0,0,0,3.32,2.58c2.4.35,2.11-3.75-.39-5.67a3.83,3.83,0,0,0-2-.85Zm-510,12.71c2.31-.41,3.7,1.28,1.73,3.6-2.7,3.18-6.93,4-6.88,1.39,0-1.08,1.22-2.83,2.62-3.86a6.25,6.25,0,0,1,2.53-1.13Zm462.12-16.27a1,1,0,0,0-.64.29c-.68.67-.47,2.29.43,3.6s2.17,1.79,2.85,1.12.47-2.29-.43-3.6a2.64,2.64,0,0,0-2.21-1.41Zm166,29.38c-1.76-.3-2.24,1.34-.14,3.59a10.11,10.11,0,0,0,3.73,2.68c2.42.51,1.36-3.32-1.45-5.31a5.34,5.34,0,0,0-2.14-1ZM1699.26,2914a5.07,5.07,0,0,0-3.73,1.63c-.82.83-2.31.38-3.31-1s-2.38-2-3-1.37-.43,2.28.48,3.59,2.15,1.87,2.77,1.26,1.86,0,2.77,1.27a4.7,4.7,0,0,0,3.65,2.09c3.35-.32,5.38-3.24,3.75-5.5a4.36,4.36,0,0,0-3.33-1.92Zm18,2.42a1,1,0,0,0-.63.27c-.63.64-.33,2.25.64,3.56s2.28,1.81,2.92,1.17.32-2.24-.65-3.56a3,3,0,0,0-2.28-1.44Zm-581.52,30.21c-1.34.55-4.84,2.85-12.22,7.66-11.65,7.58-9.06,7.37,4.9-.36,3.17-1.76,6.37-4.24,7.14-5.51s1.13-1.93.61-1.89a1.27,1.27,0,0,0-.43.1Zm43.26-9.5a9.94,9.94,0,0,0-4,2.27c-2.19,2-1.68,2.12,1.72.54,2.77-1.29,4.06-2.49,3.08-2.8a1.6,1.6,0,0,0-.85,0Zm686.14,9.06c-1.3-.19-2.19.57-3.77,2.16-3,3-2.94,3.69,1.23,6.83,5.18,3.9,16.09,4.94,15.71,1.54-.13-1.17-3.25-4.28-7-6.92-3.19-2.28-4.92-3.41-6.22-3.61ZM1737,2923.54a2.19,2.19,0,0,0-1.72.59,4.21,4.21,0,0,1-2.77,1.43c-.71-.08-1,.62-.67,1.59l1.2,3.41c.32.91,1.07.62,1.62-.69a2.5,2.5,0,0,1,3.66-.89c3.27,1.83,3.9-2.32.73-4.72a3.65,3.65,0,0,0-2-.72Zm-70.53-8.21c-3.13-.35-7.34,1.71-8,4.73-.45,2,6.87,8.87,10.12,9.41a7.18,7.18,0,0,1,2.93,2c2.34,2.55,4.51.12,2.52-2.83-.88-1.31-2.11-1.89-2.74-1.29s-2-.5-3-2.42-.67-4,.66-4.63c1.61-.8,1.66-2.06.09-3.79a4.06,4.06,0,0,0-2.62-1.22Zm11,1.15c-.9-.15-1.65.48-2.68,1.76-2.14,2.64-2,3.43,1.19,7.42,2,2.47,3.66,5.16,3.62,5.92a1.61,1.61,0,0,0,1.53,1.55,6.76,6.76,0,0,1,3.39,2c2.39,2.56,4.52.15,2.48-2.8-.91-1.31-2.15-1.86-2.8-1.24s-1.86.09-2.72-1.16,0-2.67,2-3.22c4.81-1.33,5.16-1.3,5.86,1.22,1.17,4.22,4.2,6,5.91,3.41,1.17-1.76,2.26-1.7,3.54.11s2.73,1.92,4.69.39,2.07-3,.21-4.94-3.11-2-4.28-.22c-1.31,2-2.15,1.65-4-1.61-1.26-2.27-2.59-3.49-3-2.72s-2,.16-3.54-1.35c-2-1.9-3-1.92-3.3-.15s-1.69,1.24-4.48-1.58c-1.72-1.75-2.79-2.65-3.7-2.81Zm47.61,5.93c-2.5-.27-6.42,5.12-4.69,7.46a6.29,6.29,0,0,0,3,2.38c2.17.28,4.38-7.56,2.63-9.35a1.61,1.61,0,0,0-1-.49Zm-19.33-.61a1,1,0,0,0-.64.27c-.67.66-.23,2.5,1,4.14a35.72,35.72,0,0,1,3,4.81c.44,1,1.08,2.54,1.47,3.41s1.68-.13,2.86-2.23c2-3.62.12-9.55-2.24-7.22-.6.6-2-.09-3-1.52a3.38,3.38,0,0,0-2.45-1.66Zm-143.41-3.92c-1.83-.11-2,.66-1.84,2.21a10.5,10.5,0,0,1-2.46,6.38c-1.56,1.86-2.28,2-1.68.41,1.29-3.55-1.77-6.2-8.62-7.47-4.59-.85-5-.42-2.79,2.9,2,3.16,2,4.54-.37,7.91-2.58,3.71-3.07,3.68-5.17.12-3.68-6.21-7.39-6.77-10.32-1.55-1.88,3.36-3.8,4.25-6.21,3-3.39-1.81-3.37-1.89-.08-5.27,3.68-3.79,2.39-4.28-5.93-2-3,.81-5.5,2.52-5.49,3.78s.82,1.59,1.79.77c3.64-3.1,5.68,1.65,2.67,6.27-1.64,2.51-3.92,3.85-5,2.95s-.91.26.47,2.52c2.74,4.48,6.55,3.2,4.45-1.5-.71-1.59.53-.8,2.75,1.77,3.67,4.27,4.31,4.36,7.11.91,4-5,9.56-6.14,10.72-2.29.51,1.68-1.1,4.08-3.63,5.36-5.25,2.64-6.16,5.41-1.38,4.4,5-1.06,4.06,6.22-1.1,8.06-2.51.9-3.22,1.81-1.55,2s4.13,1.93,5.48,4c3.58,5.36,5.12,4.66,7.35-3.62a74.75,74.75,0,0,1,5.11-13.3c2.92-5.44,3.49-5.55,7.54-2.1,2.41,2.06,5,2.89,5.7,1.91s.56.7-.4,3.71c-1.66,5.17-1.46,5.44,3.93,5.06,3.15-.23,6-1.08,6.29-1.86.54-1.41-8.82-8.24-15.17-11.09-1.86-.84-3-2.46-2.5-3.64s-1-2.83-3.27-3.66c-3.17-1.18-3.58-2.15-2.06-4.39s4.14-2.16,12,.4c9.52,3.13,10.45,3,15.94-2.4,2.31-2.27,3.46-3.4,5.73-5.66l-6-1.85c-6.6-2-10.11-2.92-11.93-3Zm40.78,3.41a2.84,2.84,0,0,0-2.14.63,3.25,3.25,0,0,0-.33,3.82c1.77,3.08,6.08,3.24,7,.26.67-2.18-2.12-4.55-4.52-4.71Zm19.48,1.85a1.38,1.38,0,0,0-.7.33c-.78.71-.75,2.36,0,3.67s2.07,1.73,2.86,1,.74-2.36,0-3.66a2.32,2.32,0,0,0-2.14-1.35Zm96.65,9.5a1.11,1.11,0,0,0-.65.27c-.66.65-.4,2.26.57,3.57s2.29,1.81,3,1.16.4-2.26-.58-3.57a2.91,2.91,0,0,0-2.31-1.43Zm142.65,24.43a7.8,7.8,0,0,0-2.75-.13c-2,.32-1.89.92.78,2.8,4.5,3.17,7.74,3.81,7.52,1.5-.16-1.8-2.8-3.59-5.55-4.17Zm13.76,3.81a9,9,0,0,0-7,2l-3.7,2.88,11.72,5a156.19,156.19,0,0,1,18,8.88c7.82,5,8.25,4.45,3.54-4.14-5.57-10.15-9-13-9.12-7.59,0,1.85,0,2.77-.11,4.62-1.64-2.11-2.46-3.17-4.1-5.3-2.88-3.71-6.1-5.88-9.2-6.35Zm-844.1,25.61a4.44,4.44,0,0,0-.55.31,6.49,6.49,0,0,0-3,4.18c-.14,1.34,1,1.67,2.39.74a6.21,6.21,0,0,0,2.86-4.12c.12-1.18-.59-1.65-1.75-1.11Zm357.87-56.44a2.4,2.4,0,0,0-.84.43,3.81,3.81,0,0,0-1.23,3.75c.37,1.23,1.54,1.5,2.6.66a3.81,3.81,0,0,0,1.22-3.75A1.38,1.38,0,0,0,1389.46,2930.05Zm-385.86,69.38c-2.49.78-3.9,2.06-2.47,3.24.75.62.11,2.22-1.4,3.52s-.7,1.44,2.42,0c3.73-1.7,5.58-1.13,6.72,2.19,1.91,5.56,5.56,3.94,6.83-3.16.54-3-1.39-5.57-4.71-6.21a15.64,15.64,0,0,0-6.22.07c-.39.09-.81.22-1.17.33ZM1912,2977.65c-2.77-.66-3.81.9-3.85,4.67,0,3.5.16,6.9.55,7.56s3,.54,5.81-.31a22,22,0,0,1,8.72-.82c5.53,1.1,5-1.11-1.31-5.53-4.58-3.22-7.77-5.06-9.92-5.57Zm-323.42-42.42c-1.88,0-3.32,2.07-2.07,4.3.71,1.27,2,2.36,2.92,2.4,2.53.11,3.34-4.22,1.13-6a3.08,3.08,0,0,0-2-.7Zm-9.79,2.38a1.48,1.48,0,0,0-.75.35c-.86.74-1,2.41-.24,3.7s2,1.69,2.86,1,.94-2.41.23-3.7a2.12,2.12,0,0,0-2.1-1.3Zm297.8,40.16a.86.86,0,0,0-.6.2c-.54.54,0,2.05,1.26,3.34s2.67,1.87,3.22,1.33,0-2-1.27-3.35a4.23,4.23,0,0,0-2.61-1.52Zm58,12.35a.81.81,0,0,0-.57.16c-.48.5.23,2,1.56,3.24s2.79,1.88,3.28,1.39-.23-1.95-1.56-3.24a5,5,0,0,0-2.71-1.55Zm-962.65,26.43a57.84,57.84,0,0,1-7.2,2.43c-3.05.87-5.8,2.25-6.11,3.06s2.42.39,6-.86,4.46-1.34,2-.2c-7.91,3.61-16.57,8.84-17.12,10.38-.75,2.14.54,1.57,11.64-5.23,5.47-3.36,10.5-7.09,11.22-8.29s.52-1.76-.39-1.29Zm55-14.27c-.58.18-.73.91-.81,2.57-.15,3.43,1.68,3.4,5.56-.14,1.46-1.34,1.89-2.25.91-2a9.46,9.46,0,0,1-4-.22,3.3,3.3,0,0,0-1.61-.2Zm355.75-52.61a2.4,2.4,0,0,0-.86.43,3.71,3.71,0,0,0-1.24,3.75c.38,1.22,1.59,1.5,2.67.66a3.73,3.73,0,0,0,1.23-3.75,1.43,1.43,0,0,0-1.8-1.09Zm490.88,31.57a.87.87,0,0,0-.61.21c-.57.55,0,2.06,1.21,3.35s2.65,1.86,3.22,1.32,0-2.06-1.22-3.36a4.16,4.16,0,0,0-2.6-1.52ZM947.45,3027a9.58,9.58,0,0,0-2.61,2.28c-1,1.13-.92,1.8.15,1.5a4.37,4.37,0,0,0,2.6-2.28c.37-1,.3-1.63-.14-1.5Zm39.53-8.58a7.1,7.1,0,0,0-1.06.54,8,8,0,0,0-3.18,3.4c-.27.94.77.92,2.26,0a8,8,0,0,0,3.16-3.4c.21-.71-.28-.87-1.18-.53Zm879.8-34.36a1,1,0,0,0-.62.21c-.59.56-.06,2.08,1.14,3.38s2.64,1.85,3.23,1.29,0-2.07-1.16-3.37a4.08,4.08,0,0,0-2.59-1.51Zm61.66,12.48c-2.37-.45-3.3.58-3.78,3.38-.6,3.45.11,5.68,2.65,7.94,4.92,4.38,3.75,6-2.44,3.35a12.5,12.5,0,0,0-9.93.41c-3.49,1.9-6,1.79-9.22-.31s-6.81-2.51-12.88-1.54c-4.73.76-11.36,1-14.68.41-6.05-1-14.7,1.64-14.75,4.46,0,.82,2.23,3.18,5,5.24,5,3.64,7.1,10.3,2.29,7.1-1.3-.86-8.23-2.75-15.35-4.13-12.43-2.41-12.81-2.23-10.72,3,1.23,3.11,3.36,5.59,4.92,5.8,4.83.65,14.06,9.33,17.47,16.47,2.67,5.62,2.52,6.89-.74,6.47-3.1-.4-4.46-1.92-6-6.52-1.71-5.13-3.58-6.81-12.43-11.16-7.49-3.68-10.76-4.48-11.93-2.91s-2.58,1.33-5-.84-3-2.2-2.43-.51c.51,1.39,3.92,4.58,7.57,7.12,9.5,6.59,6.81,10.2-3.17,4.27a34.86,34.86,0,0,1-12-12.18c-2.5-4.28-4-6.12-3.39-4.05a8,8,0,0,1-.82,6.41c-1.18,1.53-1,4.27.56,6.52,2.25,3.34,4.67,8.15,7.61,15.13.42,1,3.23,2,6.24,2.37,6.25.7,17.73,9.86,19.74,15.78a11.66,11.66,0,0,0,5.29,5.89c2.79,1.31,3.59,2.49,2.61,4.06-1.91,3.08-11.49-2.74-13.25-8.08-1.6-4.84-7.06-10.1-10.85-10.51-1.48-.16-2.77,3.59-3,8.35s-2.51,10.77-5.14,13.32c-4.6,4.45-5.15,4.46-13.15.13-4.58-2.48-8-5.49-7.72-6.65.78-2.79,7.91-2,10.4,1.11,12.13,7.51-1.91-35.57-5.71-41.19a15.35,15.35,0,0,1-2.55-9c.3-6.13-3.75-9.88-11.46-10.84-3.25-.41-4.41,1.29-4.26,6.09.12,3.67-1.43,8.15-3.46,9.93-3.24,2.85-3.27,3.84.32,8.67a55.49,55.49,0,0,0,8.55,8.93c2.47,1.9,5,5.06,5.54,7,1.71,5.75-4.18,6-10.45.42-3.43-3-10.44-6.3-16.92-7.83-10.33-2.44-11.22-2.13-14.2,3.6-2.21,4.26-4.44,5.53-7.24,4.2-3.47-1.64-3.76-2.44-2.19-5.65,1.44-3,.81-2.92-3.12.33a45.08,45.08,0,0,1-11.38,6.36c-5.73,2-6.64,1.81-8.42-2.31s-2.37-4.33-7.08-1.46c-2.81,1.71-7.12,3-9.58,2.82s-7,2.74-10.21,6.46c-6.46,7.58-10,8.21-14.64,2.72-2.62-3.08-2.41-4,1-5.38,3.89-1.57,3.63-2-3.88-6.19-8.75-4.91-9.1-4.24-3.83,7.32,4.28,9.4,2,16.07-4.1,12.2-4.05-2.56-15.22,5.11-12.81,8.76.73,1.1.17,3.18-1.28,4.68-2,2.1-4.25,1.8-9.69-1.39-7.57-4.45-9.14-2.94-2.48,2.38,3.07,2.46,3.62,4,2.06,6-3.23,4.17-15.79-4.13-18.43-12.23a29.4,29.4,0,0,0-7-10.9c-4.29-3.82-4.47-4.44-1.53-5.73,1.81-.79,6.37.42,10.12,2.65,8,4.21,26.44,8.05,28.72-4.45-7-9.22-21.34-17.72-32.36-20.88-1.53-.07-4.09-1.86-5.74-3.94-2.28-2.87-5.28-3.49-12.45-2.61-10.51,1.3-15.94-2.87-8.37-6.43,4.39-2.07,4.37-2.12-1-2.46-3-.19-6.11-1.45-6.92-2.81a5.18,5.18,0,0,0-3.49-2.54c-1.1,0-1.2,1.32-.22,3,1.42,2.45,1.13,2.47-1.5,0-2.34-2.18-3.89-2.33-5.25-.54s-2.42,1.6-3.68-.56-.94-2.44,1-1,2.23,1.09,1.12-.8-2.76-2.15-5.11-.6c-1.89,1.24-4.21,1.45-5.15.47s-1-.48-.11,1.13c2.44,4.53-4.24,7.85-10.14,5.09-4.67-2.18-4.86-2-2.09,2,1.66,2.42,2.2,3.55,1.16,2.53s-3-.64-4.45.83-2.62,1.86-2.68.86-1.35-.54-2.86,1-4,2.61-5.49,2.35c-6.31-1.11-8.33,0-6,3.19,3,4.09.07,10.26-4.85,10.23-2.32,0-3.62,1.79-3.54,4.85.07,2.68-.48,4.33-1.27,3.65s-3.65,1.2-6.35,4.22-5.69,4.65-6.67,3.62-1.2.11-.42,2.52.39,4.74-1.12,5.26c-10.27,3.5-10.95,4-7.88,6.23,1.68,1.19,3.2,5.05,3.39,8.55.4,7.26-5.07,11.83-9.88,8.38-4.19-3-6.42-2.84-5.78.39.29,1.47-1.32,3.94-3.6,5.5-10.82,7.39-12.94,11.88-9.47,21.16.76,2,1.11,7,.76,11-.54,6.26.23,7.45,5.18,8.07,3.73.46,8.24-1.59,12.64-5.67,2.74-2.53,4.11-3.8,6.82-6.33l3.15,6.88a149.71,149.71,0,0,1,6.12,16.57c4.16,13.85,4.51,14.15,10.38,10,2.91-2.07,7.46-3.77,10.12-3.75,3.82,0,4.53-1,3.46-5.09-1.86-7,1.57-16.83,5.87-16.79,1.93,0,2.88-1,2.14-2.27a3,3,0,0,1,1-3.87c1.54-1.07.69-3.52-2.44-7.12-4-4.57-4.48-7.07-3.29-14.89,1.35-8.77,4.94-13,16.4-19.45,1.43-.8,2.49-3.74,2.35-6.51-.58-11.34,12-18.19,18.45-9.9,3.23,4.17,2.86,5.48-9.4,20.79-6.18,7.73-7,10.12-5.84,18.78,1.77,13.3,4.68,15.35,15.2,11.14,10.22-4.1,22-4.06,26.64,0,8.25,10.6-21.15,8.44-25.6,8.66-4.16.15-5,8.53-1.06,11.16,3.14,2.1,3.36,10.32.29,12.4-1.38.93-3.93-.31-5.66-2.75-4.61-6.47-10.48-.6-8.34,8.26,1.27,5.2.25,7.53-5.26,12s-7.47,4.88-10.19,2.49-5.61-1.7-14.75,3.39c-10.89,6.07-11.56,6.15-12.7,1.69-1-4-2.07-4.39-7.85-2.24-5.46,2-7.53,1.74-11.23-1.85-2.66-2.58-4-6-3.13-8.24,3.31-9,3-12.67-.79-11.83s-4.46,5.27-2.54,20.22c.87,6.81.41,7.32-6.5,7.56-4.08.14-9.34,2.07-11.66,4.3s-4.85,3.36-5.68,2.46-1.58.5-1.62,3.14c-.08,6-4.36,10.69-9.73,10.72-2.24,0-5.25,2.25-6.66,4.93-2.9,5.5-15.63,13.2-18.61,11.26-1.07-.7-2.61,1-3.37,3.69-1.1,4-2.56,4.63-7.31,3.42-7.74-2-8.23,3.17-.57,6.17,7.61,4.31,12.05,16.07,12,24.28s-6.4,15-12.68,13.5c-10-1.85-21.11-3.1-31.2-1.68-1.72.68-2.46,5.4-2,12.79.38,6.42-.54,13.87-2,16.59-3.87,7,1,17.67,8,17.65,2.91,0,6.27,1.84,7.49,4.13,1.83,3.44,3.16,3.64,7.87,1.32a62.4,62.4,0,0,1,11.73-4.11c9-2,15.19-7.43,16-14,.39-3.22.82-6.65,1-7.63s4.59-4.07,9.88-6.83c7.11-3.71,9.62-6.53,9.68-10.79.09-7.75,5.83-12.1,13.76-10.49,3.81.77,8.41-.12,11.11-2.16,6.85-5.16,12.46-4.31,17.25,2.74,6,8.49,14.15,18.21,24.06,22.24,6.22.95,12.91,10.52,11.22,16.13-1,3.41-.57,4.33,1.46,3.05,1.71-1.07,2.31-4.54,1.48-8.54-1.67-8,.18-10.78,4.69-7,2.18,1.83,3.24,1.89,3.21.16,0-1.41-5-5.1-11.08-8.2-7-3.59-12.66-8.75-15.61-14.24-2.54-4.74-6-10.5-7.56-12.83-2.37-3.44-2.18-5,1.05-8.39,3.7-3.85,4.08-3.87,5.52-.06.85,2.24,2.4,3.56,3.41,2.91s3.57,1.51,5.66,4.74,8.55,9.44,14.47,13.79c7.28,5.35,11.42,10.31,12.61,15.39,2.71,8.78,8.76,20,17.73,23.64,1.73,0,2.46-1.13,1.6-2.5a3,3,0,0,0-4.14-.86c-1.57,1-1.91.48-.85-1.3,1.31-2.23,2.56-2.22,5.17,0,3.92,3.27,2.47,7.17-2.63,7.14a3.47,3.47,0,0,0-3.39,3.64c.08,4.63,1.26,4.57,8.49-.25s7.27-7.41.47-12.95c-4.81-3.92-4.72-11.77.1-8.75,1.1.69,2.6-.36,3.3-2.34.9-2.55,3.87-3.28,10.45-2.58,7.22.77,9.87,0,12-3.76,1.82-3.14,2-5.77.4-7.68-1.94-11.14,6.71-25.45,14.79-32.62,5.55-4.32,7.7-4.78,11.74-2.55,3.67,2,4.44,3.57,2.74,5.81s-.87,3.9,3.43,6.27c7.45,4.1,13,1.18,6.65-3.53-2.91-2.17-3.68-4-2.23-5.49,3.17-3.17,17.3-7.59,19.61-6.13,2.61,1.65,2,7.14-1.22,11.46-2.21,2.93-.63,5.12,9.67,12.95,14.31,10.89,16.81,15,12.15,20.52-8.25,6.71-21.88,2.81-30.41-1.16-10.92-5.05-15.67-5.25-23.31-.77-3.2,1.86-8.08,3.42-10.88,3.43s-5.72,1.75-6.42,3.81-2.63,3.54-4.3,3.3c-7.09-1-8.4.38-7.45,8,.55,4.36,1.18,8.19,1.44,8.53a9,9,0,0,1,.83,2.82c.42,2.62,3.8,6.27,6.11,6.59a34.91,34.91,0,0,1,6,2.17c2.51,1.12,5.49.91,6.83-.47,1.6-1.65,5-1.6,10.61.17,6,1.89,10,1.82,14.36-.16,12.66-4.51,6.1,15.58,4.4,21.48-1.73,8.44-7,30.48-20.4,23-4.59-2.38-7.94-2.57-12.77-.75-5.3,2-10.08,1.18-24.79-4.23-14.2-5.53-28.22-13.08-33.84,5.82-6.82,9-17.64-.58-24.69-4.78-8.38-5.46-17.12-9.94-19.52-9.94s-6.63-2.25-9.33-5c-3.87-3.91-4.34-5.92-2.35-9.69,3.06-5.79.8-16.27-3.86-18.09-1.86-.72-9.42-.17-16.85,1.23s-15,2-16.86,1.25-12.49,2-23.7,6c-7.76,2.65-23.63,10.8-31.67,4.94-2.48-4.16-4.81-2.67-7.79,4.92-1.58,4-6.28,9.25-10.43,11.62-6.89,3.93-9.49,10-8,18.67.91,5.26-6.19,16.57-12.46,19.81-3.74,1.93-10.26,9.46-14.51,16.74s-9,13.63-10.48,14.13c-8.06,6.58-4.91,22.22-4.78,31.38.38,9.67.53,20.29-2.82,29.54-3.2,7.84-3,8.75,1.33,12.65,2.61,2.33,4.73,5.37,4.76,6.69s4,7.13,8.91,12.94,8.56,12.24,8.21,14.24c.44,10.52,11.59,19.27,19.64,24.37,10.07,6.39,11.44,6.69,21.79,4.1,6.08-1.51,13.9-2.12,17.37-1.34,3.62.8,11.93-.64,19.46-3.42,7.25-2.68,15.65-4.91,18.66-4.9,5.33,0,13.61,6.41,15.45,11.93.64,1.91,3.29,2.08,8.58.55,13.06-5,15.2,10.05,13.56,19.31-1.24,11.36-3.91,27.12,4.89,36.32,5.5,5.94,10.69,16.57,10,20.21-.18.86,1.42,3.61,3.55,6.09a18.67,18.67,0,0,1,3.87,10.6,66.27,66.27,0,0,0,1.47,12.81c1,4.29.17,9.67-2.25,15a126.52,126.52,0,0,0-6.49,20.47c-2.41,10.81-2.16,13.47,1.79,22.88a101.06,101.06,0,0,1,8.14,32.62c1.67,16.85,6.66,32,13,47.56,3.38,7.79,10.64,18.79,4.31,25.8-5,2.3,6.34,13.7,11.69,11.71,2.34-.87,10.55-2.59,18.27-3.87,12.51-2,22.24-6.83,29.7-17.18,8.13-11.39,16.93-23,19.48-37.09,1.31-8.79,2.78-11.39,9.37-16.25,7.11-5.24,7.91-6.76,8.24-16.2.2-5.73-.45-12.41-1.42-14.78-1.38-3.39-.12-6,5.88-12a79.08,79.08,0,0,1,14.45-11.43c5.93-3.29,12.32-10.88,14-16.62.3-1,.84-2.65,1.2-3.65,2.24-10.14,2.67-23.06-.7-32.94-1.6-2.65-2.73-7.94-2.45-11.72s-.28-8.7-1.27-10.92c-2.24-18,20.42-43.19,33.9-53a99.48,99.48,0,0,0,16.09-15.39c11.18-14.38,22.13-32.45,26.71-50.21.57-3.9,3-7.66,5.63-8.82,3.23-3.85-20.74,3.19-23.43,3.82-15,3.46-16.22,3.42-22.44-1-3.61-2.57-6-5.6-5.28-6.74a2.68,2.68,0,0,0-1.2-3.62c-1.39-.85-5.12-5.88-8.36-11.11a98.23,98.23,0,0,0-10.67-14.24c-2.61-2.6-4.73-6.35-4.72-8.3s-2.15-4.7-4.83-6.12c-3.81-2-4.84-5.06-4.82-14.07,0-6.32-1.47-13.65-3.29-16.28a40.39,40.39,0,0,1-4.87-10.84c-.85-3.34-5.49-11.92-10.31-19.06s-8.8-14.46-8.83-16.27c-.09-5.83,4.75-6.45,6.91-.87,2,5.09,2.21,5.12,3.81.77s2-4.23,6.57,1.48c5.92,7.68,11.21,17.22,12.32,27,0,2.51,1.66,4.55,3.62,4.55,4.63,0,8.59,7.67,8.71,16.28.15,9.82,7.65,18.72,14.22,25.45a23.72,23.72,0,0,1,6.47,15.68c.05,8,1.57,28.66,14.79,20,2.35-1.23,12.54-6.26,22.7-11.12,8.81-4.29,17.66-8.54,26.3-13.17,8.42-5,18.33-11.24,23.63-19.49-1.06,0,.56-2,3.53-4.47s4.73-5.07,3.9-5.88.39-3.57,2.73-6.1c4.11-4.44,3.94-4.78-5.72-10.72-5.84-3.59-10.72-8.72-11.69-12.27-.68-2.42-1-3.63-1.71-6.05-1.42,2.05-2.14,3.07-3.56,5.13-4,5.74-18.89,12.65-22.5,10.45a6,6,0,0,1-2.42-4.57c0-1.74-1.71-4.51-3.75-6.17a10.85,10.85,0,0,1-3.78-6.91c-.06-2.15-3.57-8.74-7.78-14.69-6.83-9.64-7.27-11.15-3.88-13.62,5.41-4,13-1.21,17,6.15,5.49,9.76,16.13,17.6,27.77,16.15,7.13-1.26,8.74-.77,9.9,3.2,5.3,10.32,24.39,8.77,33.65,8.91,17.58.49,19.78,1,24.52,6.64,2.87,3.38,8.23,6.89,12,7.78,8.24,2,10.86,5.37,5.64,7.3-3,1.1-3.22,2.18-1,4.69,4.11,4.75,8.79,4,10.29-1.67,2.37-8.89,6.69-2.1,6.43,10.33-.14,6.68.15,13.73.69,15.66s2.26,8.56,3.8,14.68,3.7,11.62,4.85,12.3,2,3.14,1.9,5.46,3.29,11.18,7.4,19.63c3,6.15,4.45,9.22,7.34,15.34,1.69-2.27,2.53-3.4,4.2-5.67,7-9.64,10-21.71,10.45-33.44.4-10.15,1.35-12.53,6-14.9,13.65-8.52,28.2-21.57,37.19-35,1.06-2.67,4.24-4,9.45-4,4.3,0,9.73-1.6,12.09-3.61,4-3.41,4.64-3.12,9.27,4a113.57,113.57,0,0,0,10.14,13.12c3.94,4.21,4.93,7.78,4.09,15.26-.9,8-.4,9.76,3,9.73,2.3,0,6.32-2.14,9-4.74,5.78-5.6,6.81-4.56,8.44,10.18.68,6.16,2.11,12.31,3.27,13.69s1.18,9.14-.14,17.23c-2,12.22-1.84,15.67,1.56,20.16,2.25,3,3.74,7,3.63,8.73-.53,8.86,5.71,26.53,16.38,27.14.5-.42.54-6.1-.08-12.62-.76-7.93-3.12-13.34-6.9-16.36-3.11-2.48-6.2-7-6.88-10.07s-2.68-6.51-4.48-7.76c-2.84-2-2.66-3.79,1.22-13.51,4.11-10.32,4.92-11.1,11.34-10.63,10.55.77,12.93,1.94,12.59,6.29-.18,2.18,1.74,5.23,4.28,6.69a8.86,8.86,0,0,1,4,8.32c-.58,5.61-.34,5.52,12.59-4.19l13.13-9.86c.1-4.95.13-7.43.15-12.39.05-9.49-1.62-14.57-6.83-21.46-3.75-5-8.28-11-10.07-13.3-2.91-3.82-2.37-5.15,5.62-12.36,8.42-7.6,9.15-7.81,13.43-4.33,4,3.26,4.68,3.28,5.95.28.79-1.86,3.47-3.35,5.93-3.34a11.77,11.77,0,0,0,6.84-2.16c1.33-1.2,7.09-2.73,12.76-3.41,8.14-1,12.55-3.36,20.81-11.18,5.75-5.45,10.33-11.11,10.27-12.66s2.44-5.93,5.48-9.71c6.55-8.12,6.61-10.78.67-12.88-4.1-1.45-4.1-1.74,0-4.45,3.66-2.44,3.73-2.95.41-3.05-6-.17-8.31-4.63-3-5.73,4.51-.92,4.38-1.38-3.83-10.68s-8.48-10-5.47-15.08c1.72-2.9,6.29-6.48,10.18-8l7-2.76-10.41.49c-10.92.52-23.83-5.62-23.43-9.43.63-6.06,13.89-14.37,22.35-14.17,2.64,1.8,2.83,3.39.74,7.26-1.48,2.73-2.06,5.56-1.19,6.24s2.41-.68,3.36-3c1.88-4.66,8.45-5.18,16.57-1.3,4,1.93,4.79,3.3,3.58,6.25s-.28,4.55,4.72,7.34,6.54,5.08,7.33,11.81c1,8.23,1,8.29,6.88,6.28,9.72-3.36,9.89-4.15.72-18.09-3.53-5.38-5.32-8.07-9-13.47,1.73-2,2.6-3.06,4.31-5.09,2.36-2.8,7.1-8.51,10.44-12.67,4.95-6.18,6.78-7,10.17-4.77,6,3.92,10.25,1.88,16.91-8,11.85-16,13-35.22,4.53-53-3.15-7-12-13.72-14.92-11.37-2.43,2-10.94.92-12.12-1.56-.47-1-3.61-2.9-7-4.22-5.55-2.19-5.94-2.73-4.85-6.19.66-2.08,6.38-9.13,12.22-15.39,5.79-7.15,15.83-14.16,24.7-7.57,3.36,2.28,17.68,3.44,19.39,1.62.91-1,3.63-.36,8.07,1.83,8.63,4.25,24.78,7.46,19.93,4-5.35-3.81,4.72-14.18,12.77-13,6.68.93,13,4.35,10.61,5.73-.72.42-.35,2.07.9,3.74,1.87,2.48,2.7,2.5,4.31,0,1.08-1.72,3.07-2.9,4.49-2.62s1.68-.64.56-2c-2.69-3.37-.29-6.2,3.67-4.19,4.33,2.2,5.75,11.92,1.68,11.81-1.77,0-4.78,3.49-7,8s-5.46,8.12-6.85,7.89-2.59,1.79-2.74,4.49c1.54,12.09,10.89,22.35,18.11,31.48,2.77,3.2,4.15,4.79,6.86,8,.9-2.19,1.34-3.28,2.18-5.45,1.15-3,3.43-5.2,5.16-5s2-.51.5-1.71c-4.19-3.44-1.58-10.83,3.23-9,3,1.16,3.28.72.93-1.54-4-3.89-4.5-10.24-.54-8.27,1.58.79,2.29.61,1.6-.41a13.4,13.4,0,0,0-4.32-3.38c-1.69-.85-3.12-2.31-3.07-3.18s-1.69-2.78-3.88-4.29c-5.36-3.68-5.77-14-.39-11.83,2.09.85,4.09.59,4.4-.6a2.44,2.44,0,0,1,3.22-1.39,30.85,30.85,0,0,0,7.77.55c3.65-.17,6.63.76,10.81,3.3,5.23,3.17,6.11,3.18,9.06.53,5.49-4.92,18.41-6.7,24.79-3.72,3.36,1.58,5.7,2.11,6,1.41.6-1.47-16.25-13.46-20-14.34s-12.92-6.6-11.67-7.29c.55-.3,4.19.79,8.15,2.45,9.61,4,12.49,3.44,7.27-1.45-5.63-5.29-3.61-6.13,2.84-1.19,5.78,4.43,6.19,4.57,8.94,3.66,1.52-.51,3.84.4,9.44,3.62a64.85,64.85,0,0,0,10,4.9,43.9,43.9,0,0,1,8,3.82c6.14,3.57,11.22,5.27,6.07,2-3.84-2.4-4.5-6.91-.85-5.94,1.32.35,2.47,0,2.56-.65.14-1-2.7-2.47-12-6.55-15.3-6.71-16-6.92-12.38-3,3.45,3.73-2.46.89-7.74-3.34-19.64-15.73-48.4-25.56-72.87-33.71-9.86-3.2-20.38-7-23.45-8.5-5-2.45-4.81-2.15,1.51,3,9.26,7.51,7.59,8.05-5,1.74-7.56-3.8-13.83-6.07-24.16-8.59-9.86-2.2-22-5.09-29.48-12.34-7.17-7-17.51-8.82-27-10.64-12.19-2.41-15.35-3.38-18.52-6.06-2.11-1.78-4.66-3.13-5.62-3-1.73.31-8.07-3.91-11.48-7.61s-9.87-5.07-12.91-2.68c-3.39,2.66-8,.66-7.8-3.45.11-2.48-.66-2.87-11.4-5.59-6.31-1.59-12.94-3.47-14.8-4.23-2.32-.95-1.83.49,1.47,4.62,3.81,4.77,3.84,5.79.42,5-2.37-.56-4.42-.54-4.57,0s-3.55-.74-7.52-2.87c-5.59-3-7.63-3.53-9.11-2.33s-3.31.75-7.59-1.76c-4.73-2.76-5.24-2.63-3.61.55,3.67,7.15-2.05,5.36-18.93-6.25-16.62-11.43-19.66-14.62-12.9-13.1,3.21.72,3,.19-1.19-3.42-3.86-3.3-7.33-4.83-14.87-6.44-5.68-1.22-9.89-1.13-9.92.22-.09,3.12-21.81-2.41-23.67-6.12-1.66-3.31-19.7-7.38-20.62-4.57-.46,1.43-2.17.46-6.39-3.66a94.48,94.48,0,0,1-6.72-7.06c-2.13-3.15-4.55-4.1-9.91-3.7-4.57.34-4.69.69-.61,1.72,4.9,1.25,18.62,9.61,14.3,8.74a12.41,12.41,0,0,1-4.75-2.87c-1.4-1.33-4.84-2.88-7.63-3.45-4.87-1-4.83-.82.59,2.88,5.59,3.82,5.62,3.85,2.61,4.49a22.24,22.24,0,0,0-5,1.77c-2.82,1.55-13.7-1-15.18-3.65-.69-1.21.71-3.32,3.08-4.65s4.89-3.66,5.58-5.21,2.88-2.49,4.87-2.12c5.54,1,9.67-2.7,5.72-5.2-2.49-1.58-3.21-2.79-3.07-5,.14-2.41-.2-2.77-1.91-2.33-1.12.29-4.34-1.15-7.11-3.2-4-3-6.5-3.71-12.23-3.39-4.53.25-8.89-.55-11.74-2.27-2.5-1.51-6.64-3.78-9.17-5-4.35-2.09-4.46-2.29-3-4.37s1-2.43-4.45-4.62a16,16,0,0,0-2.86-.91ZM1053.5,3004a4.74,4.74,0,0,0-1,.52,6.55,6.55,0,0,0-2.84,3.5c-.15,1,.93,1,2.35.12a6.55,6.55,0,0,0,2.82-3.5c.11-.76-.42-1-1.3-.64Zm842.09-12.42a.86.86,0,0,0-.61.2c-.56.54,0,2,1.26,3.33s2.7,1.86,3.27,1.32,0-2-1.28-3.33a4.36,4.36,0,0,0-2.64-1.52Zm-961.45,43.77a20.5,20.5,0,0,0-4,2.43,35.88,35.88,0,0,1-8.82,4.3c-2.47.7-10.15,5.05-17.09,9.63-10.11,6.67-11.61,7.84-7.37,6,2.91-1.29,5-1.57,4.65-.62s3.61-1.59,8.77-5.66c7.12-5.6,9.49-7,9.86-5.88s2.32.11,7.5-3.91,7.69-6.61,6.51-6.25Zm160.34-38.76a4.91,4.91,0,0,0-1.87.93c-1,.87-.22,1.12,1.78.63,2.22-.54,2.93-1.14,1.87-1.55A3.06,3.06,0,0,0,1094.48,2996.59Zm769.08-9a.92.92,0,0,0-.63.21c-.6.56-.1,2.09,1.09,3.39s2.63,1.84,3.24,1.28.08-2.09-1.11-3.38a4,4,0,0,0-2.59-1.5Zm83.18,16.52a.8.8,0,0,0-.59.17c-.51.5.18,2,1.5,3.23s2.8,1.87,3.32,1.37-.18-1.95-1.5-3.23a5,5,0,0,0-2.73-1.54ZM943.08,3035.09a7.29,7.29,0,0,0-1.09.54,8.64,8.64,0,0,0-3.33,3.33c-.32.91.72.86,2.25-.07a8.67,8.67,0,0,0,3.32-3.33c.23-.68-.24-.83-1.15-.47Zm191-43.53a4.25,4.25,0,0,0-1,.51,5.35,5.35,0,0,0-2.42,3.59c0,1.08,1.12,1.18,2.46.28a5.34,5.34,0,0,0,2.4-3.6c0-.81-.58-1.07-1.45-.78Zm443.42-29.74a1.66,1.66,0,0,0-.78.35,3.1,3.1,0,0,0-.3,3.71c.72,1.29,2,1.68,2.95.93a3.07,3.07,0,0,0,.28-3.7,2.15,2.15,0,0,0-2.15-1.29Zm561.77,96.39a.64.64,0,0,0-.5.05c-.34.34.75,1.6,2.37,2.8s3.2,1.88,3.54,1.54-.75-1.59-2.38-2.79a8.9,8.9,0,0,0-3-1.6Zm-1118.22-39.94a3.49,3.49,0,0,0-2.56,2.35c-.7,1.6,2,2.49,6.34,2.05,6.39-.64,7.19.07,5,4.5-2.45,5.06-1.28,5.68,8.16,4.61,2.15-.25,4.11.27,4.38,1.11s6.92-.21,14.72-2.31,17-4.35,20.56-5c3.93-.76,6.36-2,6.38-3.31s2.12-4,4.66-6.41c4-3.71,4.09-3.92.4-1.2a25.72,25.72,0,0,1-9,3.94c-2.59.46-12.29,2.75-21.54,5.09-17.25,4.37-23.77,3.41-19.55-3.17,1-1.57-.94-2.65-4.47-2.42a92,92,0,0,1-10.56.08,9.73,9.73,0,0,0-3,.12Zm883.23-17a.93.93,0,0,0-.63.19c-.57.54,0,2,1.24,3.33s2.71,1.85,3.3,1.31,0-2-1.25-3.32A4.35,4.35,0,0,0,1904.28,3001.31Zm-130.94-20.43a16.52,16.52,0,0,0-9.24,2.08c-4.37,2.34-9.7,3.25-13.48,2.18-3.59-1-9.13-.33-13.12,1.72-3.81,1.95-9.65,3.34-12.92,3-4.61-.46-5.25.07-2.87,2.48s2.19,4.49-1.1,9.29c-2.81,4.1-3.34,6.58-1.47,7.39,7.4,3.2,8.86,4.38,3.9,3.19-6.49-1.55-7.38-.79-10.09,7.94-1.69,5.48-1.56,6.47.71,5.5,3-1.27,9.27,4.62,8.32,7.78-.32,1.05,3.66,2.36,8.86,2.91s8,.36,6.16-.44c-4.41-2-9.88-8.5-11-13.13.37-9.69,7.23-21.29,14.2-27.87,2.45-1.63,5.93-2.83,7.77-2.63,3.78.41,22.42-5.35,25.86-8,2.51-1.91,1.73-3.12-.48-3.44Zm-811.12,53.47c-1.12.39-3.3,2.42-5.87,5.92-3.3,4.49-5.14,6-9.05,7.4-2.71,1-5.77.94-6.74-.13s-4.63-1.72-8.16-1.39c-6.1.58-6.65.89-10.85,5.86s-2.42,6.27,2.92,1.9c3.29-2.7,10.34-2.56,8.31.19-.83,1.12-4,3.14-7,4.48-4.75,2.11-4.7,2.26.45,1.13a68.1,68.1,0,0,0,13.26-5,169,169,0,0,1,15.73-6.79c4.65-1.69,9.63-4.29,11.1-5.79,1.68-1.72.92-2-2-.85-3.36,1.32-4,.48-2.38-2.91,1.51-3.17,1.41-4.39.29-4Zm36.11-8.66a18.5,18.5,0,0,0-4,1.67c-4.27,2.34-4.68,2.89-4.09,7.27.82,6.15,6.77,5.07,11.92-2.35,3.52-5.08,1.24-8-3.87-6.59Zm-13.7,3.55a5.86,5.86,0,0,0-1.07.53,7.35,7.35,0,0,0-3.08,3.4c-.22,1,.85.95,2.34,0a7.2,7.2,0,0,0,3.06-3.4c.17-.72-.35-.9-1.25-.56ZM2158.2,3066.7a.65.65,0,0,0-.51.05c-.33.32.77,1.57,2.41,2.76s3.23,1.87,3.57,1.55-.77-1.57-2.42-2.76a9.43,9.43,0,0,0-3.05-1.6ZM995.5,3028.52c1.21-.52,2.06,0,2.09,1.17a5.19,5.19,0,0,1-2.58,4.12c-1.46.91-2.7.54-2.73-.82a5.37,5.37,0,0,1,2.67-4.17,6.07,6.07,0,0,1,.55-.3ZM2098.76,3052a.8.8,0,0,0-.43,0c-1.74.38,2.91,6.59,7.26,9.61,3.64,2.52,9.3,3.68,8.64,1.81-.36-1,1.77-.46,6,1.61,8.87,4.38,9.55,4.43,3.75.27-2.72-1.95-5.24-4.34-5.62-5.3a4.26,4.26,0,0,0-2.54-2.25c-1-.29-1.57.28-1.19,1.26.45,1.17-1.93.2-7-2.83-3.68-2.21-7.38-3.94-8.86-4.21Zm-11.79-3c-1.69-.41-.56,2,3.1,5,2.28,1.84,3.2,2.08,3.33.88s-1-2.47-3.83-4.46a8.76,8.76,0,0,0-2.6-1.39Zm36.72,11c-4.09-1.16-4-.8.29,2.29,5.88,4.19,5.66,4.09,8.14,3.62C2134.81,3065.43,2129.38,3061.66,2123.69,3060ZM911.88,3053a7.92,7.92,0,0,0-1.11.54,8.68,8.68,0,0,0-3.36,3.28c-.3.9.75.84,2.31-.08a8.54,8.54,0,0,0,3.34-3.28c.23-.68-.26-.82-1.18-.46Zm98.22-24.42a5.42,5.42,0,0,0-1.06.52c-1.46.92-2.76,2.46-2.91,3.45s.94,1,2.4.09a6.56,6.56,0,0,0,2.9-3.45c.11-.74-.43-.94-1.33-.61ZM983,3035c-.17.08-.37.19-.56.3a5.36,5.36,0,0,0-2.68,4.15c0,1.35,1.27,1.7,2.74.8a5.17,5.17,0,0,0,2.6-4.09c0-1.19-.88-1.68-2.1-1.16Zm393.17-56.16a2.6,2.6,0,0,0-.89.43A3.57,3.57,0,0,0,1374,2983a1.66,1.66,0,0,0,2.78.67A3.57,3.57,0,0,0,1378,2980a1.51,1.51,0,0,0-1.89-1.09Zm766.49,89.62c-.88-.2,0,.38,3.13,2.19a44.39,44.39,0,0,0,9.28,3.9l4.65,1.25-6.32-3c-3.45-1.62-7.61-3.37-9.26-3.91-.67-.22-1.19-.4-1.48-.47ZM972.94,3040.74a6.66,6.66,0,0,0-1.08.53c-1.49.92-2.85,2.44-3,3.39s.9,1,2.39.05a7,7,0,0,0,3-3.4c.14-.72-.39-.9-1.3-.57Zm868.34-37.67a1.12,1.12,0,0,0-.68.24c-.67.59-.27,2.15.85,3.44s2.59,1.82,3.27,1.23.27-2.14-.87-3.44a3.67,3.67,0,0,0-2.57-1.47Zm-824.57,27.75a8.8,8.8,0,0,0-1.11.3,10.51,10.51,0,0,0-3.15,1.67c-2.56,2-3.21,3.21-2.13,4.23,1.75,1.65,5,.43,8.13-3.08,2-2.31.67-3.52-1.74-3.12Zm364.38-47.43a2.33,2.33,0,0,0-.89.42,3.56,3.56,0,0,0-1.21,3.75,1.69,1.69,0,0,0,2.81.67,3.53,3.53,0,0,0,1.19-3.74,1.52,1.52,0,0,0-1.9-1.1Zm169.74-.43a2,2,0,0,0-.82.37,3.08,3.08,0,0,0-.45,3.72,2,2,0,0,0,3,.9,3.06,3.06,0,0,0,.45-3.72,2.09,2.09,0,0,0-2.16-1.27ZM2097,3062.72a.72.72,0,0,0-.57.11c-.46.4.41,1.74,1.91,3s3.07,1.85,3.53,1.44-.41-1.73-1.92-2.95a6.6,6.6,0,0,0-2.95-1.56Zm27.89,8.26c-.79-.16,0,1.34,2.57,4.46,3.59,4.38,4.75,5.13,10.72,6.65,4,1,5.56.8,3.8-.57a19.81,19.81,0,0,0-5.82-3.05,21,21,0,0,1-6.57-4c-2.49-2.19-4.07-3.33-4.7-3.46Zm-1236.67-1.22c-4.52,1.18-12.41,5.23-14.61,8-5.91,7.4-9.43,10.63-15.1,13.39-4.54,2.21-5.17,2.72-2.63,2.17,1.83-.4,2.94.72,2.51,2.46-.86,3.46,5.07,1.73,12.57-3.77a28.57,28.57,0,0,1,7.32-4,9,9,0,0,0,4.3-2.61c.88-1.09,5.39-4,9.95-6.49,10.46-5.68,13.75-6.52,4-1-4,2.25-6.35,3.87-5.29,3.64,3.33-.74,10.34-5.32,13.54-8.83,3.93-4.32.53-6.28-6.74-3.85-3.12,1-6.15,1.42-6.75.89s-1.6-.32-3.1.07Zm904.77-60a1.3,1.3,0,0,0-.72.27c-.75.63-.48,2.21.56,3.51s2.5,1.8,3.26,1.16.47-2.21-.58-3.51a3.29,3.29,0,0,0-2.52-1.43ZM1022.32,3041c-4.57,1.11-11.19,3.6-13.74,5.58-1.65,1.27-4.67,5.77-6.62,10-2.94,6.33-2.71,7.13.91,4.55,2.42-1.72,4.44-3.93,4.49-4.89s2.06-2.65,4.48-3.81c6.36-3,15-9.65,15.15-11.51.06-.74-1.93-.57-4.67.1Zm-26,5.86a30.59,30.59,0,0,0-5.61,2.8c-3.95,2.26-8.43,4.38-9.91,4.7-2.08.45-2.59,1.11-2.38,3.09.39,3.6-4.91,6.5-8.37,4.57-3.66-2-3,.83,1.93,6.7,2.14,2.55,4.82,3.79,5.82,2.72a11.55,11.55,0,0,1,5.42-2.66c5.2-1,8.56-5.57,7.23-9.51-.78-2.29,0-4.19,2.28-6a14.19,14.19,0,0,0,4.28-5.2C997.32,3047.07,997.23,3046.62,996.29,3046.86ZM1819,3015.27a1.28,1.28,0,0,0-.72.25c-.72.62-.41,2.19.67,3.49s2.54,1.8,3.28,1.18.41-2.18-.67-3.48a3.46,3.46,0,0,0-2.56-1.44Zm-862.3,42.56a6.28,6.28,0,0,0-3.31,2.9c-.75,1.36-3.55,3.22-6.26,4.16-3.51,1.21-6,3.14-8.5,6.69-4.25,6-9.85,9.69-8.26,5.5.62-1.63-.42-3.76-2.29-4.69-3-1.48-3.81-1.24-6.84,1.71s-3.65,3-4.54,1.36-1.8-1.35-5.68,2c-6,5.17-7.88,3.68-2.32-1.84,2.34-2.32,3.63-4,2.88-3.87-1,.24-16.15,8.71-23.47,13.1-.47.29-1.94,2.86-3.2,5.69-2.16,4.85-1.59,4.93,8.08,1.93,10.53-3.27,16.51-2.46,11.9,1.49-1.42,1.22-8.7,3.55-16.22,5.26-12.82,2.93-13.36,3.19-7.78,3.57,3.27.21,6.28,1.75,6.66,3.43,9.75,3.41,20.94-3.7,29.87-7.68,9.1-4.47,11.43-5.06,17.59-4.2,3.91.55,7.91,1.91,8.84,3,1.35,1.64,1.44,1.32.75-1.67-.89-3.92,1.9-6.61,10.84-10.8,2.08-1,1-1.28-2.3-.72s-6.83.14-7.77-.95c-2.22-2.58,3.36-16.86,7.65-20.05s6.11-5.92,3.68-5.37Zm122.82-24.39c-2.59.39-4.94,1.64-6,3.58-2.4,4.57-.87,5.9,4.2,3.81a54.72,54.72,0,0,1,8.58-2.66c3.54-.68,3.58-1,.69-3.14a10.26,10.26,0,0,0-7.5-1.59Zm-35.8,8.3c-8.66,2.77-17.76,9.1-22.44,16.27-3.71,5.69-3.34,16.09.28,15.63,1.67-.21,11.94-1.59,22.87-3,13.81-1.79,21.76-1.67,26.11.32,3.44,1.57,7.85,2.81,9.76,2.74,5.93-.22,6.5,3.75,1.25,8.81-4.17,4-4.13,4.09.13,1,4-2.93,4.75-2.81,5,.81a19.65,19.65,0,0,1-1,7.45c-.88,2.2.41,2.78,4,1.66,6.59-2,7.74,1.33,2,5.73-3.46,2.62-4.69,2.59-6.56,0-2.1-2.93-2.84-2.8-8.43,1-4.85,3.29-5.87,4.71-4.91,7,.66,1.59.34,3-.72,3.25s-6.23,1.09-11.54,1.95c-7.29,1.19-10.28,2.6-12,5.64s-.93,3.88,2.67,3.42a25.16,25.16,0,0,0,8.57-2.92c3.9-2.44,17.59,2.86,16.34,6.31-.39,1.09,1.61,2.42,4.5,2.92,4,.7,4.44,1.44,1.6,3.19-2.58,1.6-1.69,2,3,1.41,3.69-.49,9.8.81,13.61,2.9,9,4.93,8.93,5,6,0-2.46-4.2-2.39-4.39,2.25-6,7.53-2.61,7.77-10.31,1.28-20.29-5.64-8.68-5.55-9.16-.45-12.81,7.14-5.12,7.52-5,12.53,2.08,3.38,4.82,5.27,5.54,8.19,3.28,2.07-1.61,3.55-3.88,3.28-5s1.69-2.83,4.4-3.81c4.59-1.66,4.76-2.06,2.92-5.61-1.08-2.09-3.23-3.19-4.83-2.44s-3.91-.54-5.07-2.87-4.68-3.92-7.89-3.53c-6.93.85-8.93-6.25-2.84-9.94,2.05-1.24,3.53-3.2,3.25-4.36-.64-2.7-9.33-7.14-12-6.13a7.82,7.82,0,0,1-4.63-.22c-2.29-.84-2-1.38,2.71-4.72,4.45-3.19,4.79-3.76,2.07-3.37a10.78,10.78,0,0,0-5.5,2.94,3.58,3.58,0,0,1-4.72.89,9.47,9.47,0,0,0-4.34-1.47c-1,.05-1.37-1-.74-2.38,2.06-4.42-2.78-7-9.37-5-3.55,1.09-6.48,2.82-6.43,3.83.16,3-7.36,5.75-9,3.34a3,3,0,0,0-4.1-.54c-3.64,2.32-3.5-2.44.38-8.59,2.56-4,2.29-4.94-1.31-4.24a26.94,26.94,0,0,0-9,4.11c-5.1,3.73-12.5,15.57-11.68,18.89.37,1.47-.57,3-2.71,4.31-5,3.12-5-4.16.26-13.11,1.84-3.17,2.77-4.75,4.64-7.92-1.5,3.45-2.24,5.17-3.69,8.63-3.11,7.42-3,7.89.54,3.22,5.87-7.71,6.72-15.49,1.5-14.51Zm295.64-34.29c-.74,0-1.24.16-1.32.61s1.6,1.91,3.81,3c5.25,2.47,5.35,2.49,4.54.08-.55-1.63-4.82-3.56-7-3.65Zm-13.13,15.16a1.54,1.54,0,0,1,2,1.06,3.56,3.56,0,0,1-1.38,3.73c-1.18.84-2.49.58-2.9-.63a3.58,3.58,0,0,1,1.39-3.73,2.91,2.91,0,0,1,.94-.43ZM2355.2,3153.87a.94.94,0,0,0-.53,0c-.33.21.87,1.28,2.64,2.36s3.46,1.74,3.81,1.53-.87-1.27-2.65-2.35A13.36,13.36,0,0,0,2355.2,3153.87ZM996.27,3067.71a7.25,7.25,0,0,0-2.38.93c-9.83,5.62-16.53,16.53-9.18,15.23,5.51-1,5.07.77-2,8.23-8.49,8.9-11.09,10.33-14.21,7.93-2-1.49-4-1.2-8.67,1.25-8.92,4.65-20.37,9-30.61,7-2.92-1-4.68-2.73-3.91-3.95,1.55-2.44-8-1.15-14.8,2-3.42,1.6-4,2.29-2.76,3.28.88.68,3.06.9,4.8.52,2.09-.46,2.14-1,.19-1.71-2.4-.83-2.27-1.18.64-1.84,5.45-1.24,4.13,2.9-1.68,5.15a13.7,13.7,0,0,0-7.94,7.2c-3.74,7-9.52,9.17-7.81,3,1.59-5.77-3.73-6.77-16.33-3-10.17,3.07-13.16.12-4.61-4.55,4.47-2.45,4.62-2.79,2.08-4.15-2.08-1.11-3.91-.75-7.25,1.41s-5.53,2.39-8.68.83c-5.49-2.72-16.93-2.05-21.93,1.1-2.64,1.66-5.14,1.89-7.54.77-3.34-1.57-4.27-1.27-13.53,3.8S796,3133,785,3134.17c-.24-.86,4.56-4,12.79-8.46,7.23-3.92,12.08-6.95,10.75-6.67s-6.85,3-12.28,5.93c-7.91,4.31-10.12,5-11,3.79s-1.12-1.2-1.37.76c-.37,2.88-7.36,13.31-10.42,15.29-4.06,2.63-4.35-1.45-.3-6.11,2.19-2.5,3.34-4.42,2.57-4.3-3.15.49-6.74.33-12.55-.4a34.85,34.85,0,0,0-10.75.45c-2.58.67-4.46.58-4.17-.17s-4.86,0-11.47,1.72-13,2.81-14.06,2.36c-1.33-.56-3.73.08-7.69,2.06-4.3,2.15-5.63,2.35-5.3.91.24-1.08-2.13-1.19-5.24-.29s-5.26.95-4.79.14c.58-1-.69-.6-4.07,1.27s-4.64,2.26-4.06,1.28-2,.06-7.35,2.82c-4.52,2.34-7.4,3.58-6.44,2.76s-.4-.14-3,1.53a68.58,68.58,0,0,1-11,5.29,112.1,112.1,0,0,0-15.34,7.64c-5,3-9.18,5.18-9.18,4.87s-4,1.31-8.88,3.62l-9,4.21c.4,1.09.62,1.64,1.09,2.77,1.09,2.7,4.22,4,8.09,3.16,3.43-.69-1.14,3.34-6.9,6-4.2,2-6.69,2.44-8.89,1.78-2-.6-4.94,0-8.38,1.58-2.89,1.34-7.7,3.42-10.72,4.64-5.32,2.15-5.37,2.2-2.37,2.41,1.85.13,1.61,1.27-.62,2.85-5.75,4.05,12.78.64,19.8-3.74,6.79-4.23,8.35-3.26,2.88,1.76-4.17,3.82-21.61,12.93-23.43,12.22-.47-.18-4.4,1.68-8.85,4.18-5.65,3.17-8.87,5.6-10.4,8-3.38,5.18-1.46,8.17,3.73,6.38,2.57-.89,4.46-.63,4.18.61-.67,3.06,10.31,4,16.19,1.24,6.35-2.93,5.73-.45-1.17,5.31-10.43,8.19-22.79,13.17-34.91,18.25-6.07,2.38-10.84,4.62-10.6,5,.43.61,15.13-5.07,24.8-9.64,2.56-1.21,9.44-4.32,15.3-7,11.41-5.19,30.59-12.79,33.95-20a19.67,19.67,0,0,1,5.17-3.94,32.38,32.38,0,0,0,7-5.11c3-3.56,11.9-8,15-7.52,2.67.44,2.51.62-3,3.55-5,2.68-12.27,9.28-9.62,8.77,4.89-.93,15.77-6.49,16.5-8.41,1.59-4.17,14.07-9.4,14.26-5.94.14,2.69,7.4,3.77,18.12,2.79,5.73-.52,13.71.28,17.8,1.82,5.06,1.89,8.74,2.11,11.37.54s4-1.08,4.33,1.84c.27,2.3.16,4.77-.26,5.44-1.24,2,4.65,6.93,7.71,6.54,4.7-.6,2.56,11.63-2.71,15.83-1.85,1.48-1.19,3,1.74,3.92,4.66,1.53,4.67,1.64-1.68,6.44-3.54,2.68-4.49,3.67-2.1,2.16,6-3.81,12.76-1.13,7.45,3-4.32,3.31-3.39,5.22,2.17,4.58,5.8-.68,18.1,13.77,16.13,18.75-1.88,4.76-6.6,7.92-7.62,5.07-1.5-4.19-4.25-1-8.87,10.88-2.67,6.87-6.92,17.9-9.41,24.51-3.18,8.32-5.48,20.71,3.14,25.71,1.52-.32,2.43,1.35,2.07,3.72-1,6.57,6.65,18.32,12.87,20.14,3.06.89,4.69,2.64,3.6,3.87s-.13,1.91,2.63,1.41c3.59-.64,5,1.55,7.25,10.25,1.57,6.1,4.9,13,7.23,15.23,3.07,3,3.5,4.76,1.43,6.43s-1,3.79,4.22,7.82c3.93,3.06,7.12,7.51,7.07,9.88-.1,4.64,13.05,15,15.9,12.57,1-.8-.11-2.34-2.41-3.44s-4.17-3-4.12-4.18-3-6.32-6.71-11.32-6.58-9.73-6.51-10.52-1.94-5.29-4.4-10c-3.47-6.59-3.73-9.08-1.24-11,3.69-2.92,10.26.52,9.71,5.09-.17,1.44,4,8.21,9.38,15.07s10,13.25,9.94,14.19,3.37,5.35,7.69,9.84c10.42,10.82,13.48,16.09,11.93,21.24-.16,12,25.55,19.17,33.24,22.62,17.17,7.5,21.59,8.76,25.22,6.74s6-1.46,13.48,3c9.73,5.77,21.5,13.39,31.78,14.57,5.42.62,17.52,12,18.14,18.7.51,5.48,1.14,6.11,3.93,3.9s3.87-1.69,6.47,2.72a12.53,12.53,0,0,0,9.54,6c3.47.36,7.63,1.62,9.28,2.83,2,1.47,3.8.82,5.45-2,10.86-10.66,19.18,16.35,19.64,23,.84,7.9-.31,12-5.44,18.88-3.6,4.8-7,13.5-7.52,19.41-.85,9.7-.42,11,3.83,13.22,4.46,2.34,4.45,2.68.45,5.83l-4.19,3.35c4.55,6.89,6.85,10.34,11.51,17.26q11.28,16.9,21.61,34.46c5,9.31,11,18.21,20.35,23.66,5.66,3.58,14.9,10.11,20.55,14.56l10.24,8.15q4.24,19.61,9.39,39c4.6,17.32,9.75,34.51,15.58,51.45a67.29,67.29,0,0,1,4,24c-.25,8.3,1,13.4,4.07,18.45a47.21,47.21,0,0,1,5.46,14.13c.93,5.56,2.3,8.3,6.16,12.68,7.21,9.24,14,22.08,16,33.71-.56,1.65-1.55,1.18-4.08-2s-3.41-3.67-3.37-1.52c.05,3.47,1.75,6.65,2.89,5.56s18.08,13.91,18.21,16.32c.06,1.09-1.22,1.28-2.92.37-2.4-1.29-1.67.76,3.51,9.25,3.68,6,6.65,12.17,6.55,13.63-.13,2,.33,2.63,2,2.52,3.11-.22,16.49,10,17.52,13.33,1.6,5.2,3.59,3.59,2.29-1.8-.7-2.9-.45-5.11.52-4.91s.46-2-1.14-5-2.31-6.89-1.56-8.79.75-4.06,0-4.76-.8-4.39.06-8.28c1.53-6.89,1.54-7.18-3-9.57-9.06-4.72-16.54-21.48-8.79-20.22,1.65.27,1.39-2.18-.65-6.68-2.35-5.21-2.28-7.28.18-7.74,2.84-.53,2.75-1.1-.57-3.65a29.57,29.57,0,0,1-6.56-7.69c-2.1-3.78-1.5-4.53,3-3.88,5.44.77,6.55-1.32,5.43-9.53-.36-2.65,2.45-3.84,9.13-4,17.16.4,12.18-14.62,2.62-22.33-9-9-8.5-11.26,1.12-5.27,6.59,4.11,7.5,4.2,13,1.32,9.8-6.28,10.83-24.55,12.82-34.39,1.87-9.63,1.75-13.22-1.07-17.57-1.95-3-3.16-6.57-2.69-7.93.92-2.7,13.74-13.41,15.85-13.27.72.05,2.1-1.4,3-3.22s5.56-3.44,10.26-3.65c8.22-.35,8.49-.92,11.78-15.22,2.91-11.41,2.55-22.86.52-34.4-2.06-13.71-2-20,0-21.29,1.55-1,5.82-7.43,9.62-14.3,6-10.82,11-27.28-2.32-34.78-4-2.11-8.92-5.86-10.88-8.36-2.62-3.34-7.42-4.93-18.19-6-12.57-1.29-15.9-2.67-23.13-9.36-10.18-9.43-14.41-9.81-19.79-2.11-2.89,4.15-5.94,5.58-10.43,4.92-7.65-1.13-8.06-5.16-.66-6.68,2.93-.6,5.46-2.89,5.64-5.09.5-5.91-3.71-5-11.87,2.54-4,3.69-8,6.05-8.84,5.24-2.81-2.56,10.19-21.72,13.45-19.87,1.66.94.6-.78-2.34-3.8s-5.15-6.12-5-6.95c-.46-13.13-17.24-21.45-28.18-22.12-6.4-.39-10.62-2.17-18.12-9.15-5.28-4.9-12.43-11.43-16-14.53s-5.79-6.69-5-8c.9-1.52-2.86-1.86-10.9-1-7.69.82-12.85.4-14-1.13a5.36,5.36,0,0,0-4.55-2.1c-4.79.64-16.55-4.87-16.91-7.95-.19-1.6-1.19-.63-2.21,2.17s-2.87,5.07-4.13,5-1.58,1.87-.74,4.25c2.22,6.23-2.72,8.05-6.4,2.34-2.44-3.78-2.3-6,.43-10.27,4.5-7.05.81-7.1-5.84-.12-2.84,3-6.68,4.77-8.57,4.08-3.17-1.17-4.3.61-8.33,14.67-.69,2.41-2.42,1.82-7.48-2.37-5.93-4.92-7.41-5.21-16-3.28-9,2-9.81,1.82-16.42-4.87-6.36-6.44-7-8.13-6.44-20.69.61-13.54.69-13.76-6.06-15.56a83.17,83.17,0,0,0-15.4-2.05c-8-.26-8.5-.75-8-6.9.3-3.62,1.37-7.57,2.4-8.79s2.49-6.41,3.33-11.56c1.34-8.31,1.07-9.38-3.14-9.37-10.73,0-17,4-17.75,11.38-.64,6.63-1.43,7.29-11.44,8.75-12.41,2.1-21.25-3-27.13-14-4-8.56-7.26-21.73-2.54-30.54,1-.86,1.68-4.83,1.54-8.76-.23-6.24,1-7.76,9.38-12.36,11.43-6.23,14.2-6.83,22.62-4.6a146.94,146.94,0,0,0,14.51,2.77c7.24,1,7.76.81,5.11-2.29-2.53-2.95-2.22-4,2.07-6.76a14.07,14.07,0,0,1,11-1.84,49.44,49.44,0,0,0,12.42,1c7.42-.48,13.23,6.46,13.87,16.39.5,7.62,5.84,16.16,10,16.12s3.76-3-.76-21.22c-2.12-8.56-3.58-16.9-3.43-18.54s6.59-8.52,14.42-15.37,13.86-13,13.28-13.63.75-1.77,3-2.62,3.66-2.33,3.11-3.33.25-2.53,1.7-3.35c1.78-1,2-3,.63-5.92-2.27-5.11.34-16.55,3.69-16.69,1.25-.05,2.58,2.42,3,5.49.68,4.56,1.06,4.72,1.79,1,3.15-9,11.24-18.54,20.2-22.18,8.92-.4,12.37-2.89,10.2-7.25-1.56-3.13-.91-5.31,3.07-10.1,2.8-3.37,6.71-6.21,8.67-6.31s9-2.88,15.66-6.18c8.28-4.1,13.47-5.49,16.47-4.39,2.53.93,3,1.76,1,1.95-4.73.46-13.26,7.69-14,11.88-.47,2.79.65,2.5,5.52-1.4a68.41,68.41,0,0,1,14.11-8.18c4.39-1.79,8.85-4.8,9.89-6.71s2.85-2.86,4-2.13,2.27.37,2.46-.77c.8-4.72-2.2-4.18-8.63,1.5-5.49,4.85-7.42,5.51-9.78,3.42a4.05,4.05,0,0,1-.8-5.32c1.54-2,1-2-1.84.09-3,2.21-5,1.52-9-3.23-5.35-6.31-4.62-8.84,2.59-9.25,2.4-.14,5.38-3.06,5-4-1.49-4.09-18.15,1.3-24.76,6.61-5.58,4.65-8.56,6-9.94,4.39,3-10.43,21.23-20.74,30.78-23.83a129,129,0,0,1,19-2.58c6.29-.38,14-2.06,17-3.72a68,68,0,0,1,12.8-4.84c6.24-1.59,7.38-2.85,8.72-9.51,2.07-10.25-.33-12-11.38-7.7-6.26,2.41-9.58,2.86-10.21,1.3-1.18-2.93,7.38-9,13.6-9.69,3.34-.35,3.8-.77,1.6-1.54a38.52,38.52,0,0,1-8-5c-2.7-2.11-5.56-3.23-6.34-2.54s-2.45-1.28-3.7-4.35-1.55-5.62-.69-5.69-.08-2.37-2-5.15a19.57,19.57,0,0,1-2.78-11.47c1.11-10.24.1-10.59-8.7-2.62-5,4.49-9.54,7.12-11.3,6.51a5.26,5.26,0,0,0-5.24,1.72c-1.59,1.87-3.36,1.22-5.47-2-3.47-5.3-3.28-9.85.37-12.08s4.91-8.08,1.59-7.75c-1.63.16-4.89-2.19-7.17-5.24-3.23-4.32-6.35-5.44-14.33-4.79-9.59.76-10.67,1.36-15.8,8.24-3.64,4.88-5.28,8.64-4.9,11.2s-.72,5.05-3.22,7.37c-2.07,1.93-3,3.43-2.1,3.33s.08,1.29-1.88,3.11c-2.72,2.52-3,4.61-1.06,8.66,3.15,6.52,1,14.09-6.45,21.87-3.65,3.82-7.19,10.63-9.86,19.26-3.05,9.85-5.22,14.12-8.78,16.46-4.17,2.75-5.87,2.17-11.71-4.36-6.17-6.9-6.37-8.33-2.82-16.81,1.56-3.73,2.35-5.6,3.94-9.34l-9.7-.18c-6.33-.1-13-2.56-19-7.07-5-3.79-10.23-6.13-11.72-5.27-3.35,1.93-4.64-2.15-2.41-8,1.25-3.25.37-4-3.57-3.09s-5.25-.18-5.09-4c1.21-12.92,17.25-22.51,26-29.66,4.87-3.91,8.72-7.88,8.57-8.84-.37-2.37,9.71-7.64,12.76-6.68,1.36.43,5.68-1.5,9.6-4.27,7.76-5.48,7.82-5.2-2.53-7.37-4.74-1,3.73-5.71,10.81-6,6.25-.28,6.51.31,3.66,7.89-2.25,6-4.13,8.73-7.06,10-3.21,1.44-3.15,2.34.53,4.3,4.35,2.31,5,2.1,11.09-3.64s6.62-5.94,9.93-3.36c2,1.51,4.82,2,6.28,1.14,4.3-2.61-2-11.42-8.49-12-3.28-.27-6.37-2.66-6.84-5.31-.89-5-.2-5.6,7-6,4.78-.29,20-8,21.24-10.87.44-1,.39-3.51-.12-5.66-.66-2.81.12-4.78,2.68-7.07,4.77-4.29.85-8.7-6.74-7.58-4.8.7-5.65,1.39-5.68,4.53,0,2.81-2.19,5.65-9,11.88-8.42,7.66-9,7.91-9.72,4.55-.42-2,.31-5.74,1.67-8.39s1.77-5.78.92-7c-1.24-1.73-2.75-.92-7.91,4.06-6.91,6.65-10.15,6.8-6.66.35,1.22-2.25.59-4.24-1.51-4.51-2.89-.37-2.83-1.18.24-3.79,5.44-4.63,3.22-12.16-2-11.32Zm44.3-7.46c-.49.08-1.41,1.14-2.06,2.36s-.21,2,1,1.86a2.45,2.45,0,0,0,2-2.37c0-1.1-.46-1.94-.94-1.85Zm1300.28,90.16c-3.72-1-7.38-1.38-7.38-.32,0,.83,10.14,3.75,16.4,4.83.27,0-1.12-.91-3.08-2.12a24.56,24.56,0,0,0-5.94-2.39ZM828.59,3107a9,9,0,0,0-1.14.52c-1.59.89-3.06,2.31-3.29,3.18s.91.82,2.5-.07,3-2.31,3.27-3.18c.18-.65-.37-.79-1.34-.45ZM1421,3025.25a2.51,2.51,0,0,0-.91.4,3.27,3.27,0,0,0-1,3.75,1.9,1.9,0,0,0,3,.75,3.26,3.26,0,0,0,1-3.75,1.79,1.79,0,0,0-2.09-1.15Zm-6.45,5.05a2.54,2.54,0,0,0-.91.41,3.27,3.27,0,0,0-1,3.75,1.91,1.91,0,0,0,3,.74,3.26,3.26,0,0,0,1-3.75,1.78,1.78,0,0,0-2.09-1.15ZM1749,3040.37c-.84-.1-1.5,0-1.83.57-1,1.62,0,3.5,3.33,6.1,5.58,4.37,7.65,4.82,8.48,1.9.76-2.72-6.37-8.14-10-8.57Zm-199.6-8.69a2.14,2.14,0,0,0-.87.37,3,3,0,0,0-.53,3.72,2.11,2.11,0,0,0,3.14.89,3,3,0,0,0,.52-3.72,2.17,2.17,0,0,0-2.26-1.26Zm-579.49,54c-1,.29-2.51,1.42-5.16,3.52-5.35,4.25-5.66,4.74-3.39,5.4,1.38.41,1.45,1.76.14,3-1.48,1.39.48,1.08,5.29-.87,4.24-1.72,9.13-4.49,10.9-6.16,2.59-2.44,3-2.53,1.73-.3a13.72,13.72,0,0,1-5.35,4.52c-2.07,1-3.75,2.55-3.72,3.51.08,3.2,3.55,1.22,10.6-6.16l7-7.33-7.19,2.48c-4.89,1.7-7.69,1.67-8.69-.14-.66-1.19-1.17-1.74-2.18-1.46Zm734.05-40.47c-3.06-.24-6.32,5.21-4.16,8.32,1.33,1.92,3,2.07,5.4.5,3.9-2.49,3.88-5.69,0-8.36a2.5,2.5,0,0,0-1.28-.46Zm-514,11.64c-1.75.19-2.94,1.33-2.66,2.55a2.48,2.48,0,0,0,2.44,2,3.69,3.69,0,0,0,2.66-2.54C1192.8,3057.53,1191.7,3056.63,1190,3056.81Zm-130.79,17.68a4.26,4.26,0,0,0-1.06.48c-1.4.88-2.43,2.47-2.32,3.54s1.37,1.18,2.77.31,2.42-2.47,2.31-3.54c-.09-.81-.76-1.07-1.7-.79Zm-263,53.68a38.42,38.42,0,0,0-6.73,3.08c-2.58,1.42-3.76,2.37-2.64,2.11a39.77,39.77,0,0,0,6.74-3.07c2.57-1.43,3.75-2.39,2.63-2.12Zm735.44-82.08a2.06,2.06,0,0,0-.89.38,3,3,0,0,0-.61,3.73,2.12,2.12,0,0,0,3.17.87,3,3,0,0,0,.6-3.74,2.17,2.17,0,0,0-2.27-1.24ZM1057,3083.16a4.43,4.43,0,0,0-1.06.48c-1.4.88-2.41,2.46-2.28,3.54s1.41,1.19,2.81.32,2.4-2.47,2.27-3.54c-.1-.81-.79-1.07-1.74-.8Zm466.5-32.25a2.11,2.11,0,0,0-.89.38,3,3,0,0,0-.65,3.73,2.12,2.12,0,0,0,3.18.86,3,3,0,0,0,.63-3.73,2.15,2.15,0,0,0-2.27-1.24Zm-453.1,34a6.58,6.58,0,0,0-.77.24c-5.66,1.81-8.71,7.15-3.65,6.47a7.6,7.6,0,0,0,5.85-4.11c.79-1.84.22-2.86-1.43-2.6Zm20.06,10c-2.43.3-4.25,1.5-4,2.67a2.21,2.21,0,0,0,2.26,1.89,8.43,8.43,0,0,0,4-2.66C1093.93,3095.44,1092.92,3094.58,1090.48,3094.88ZM1375.37,3075a45,45,0,0,0-6.85,1.1c-5.59,1.19-11.86,2.07-13.88,2s-3.31.77-2.86,1.85c1.23,3-9.81,10.17-16.57,10.81l-6,.58,6.16,1.21c3.38.69,5.55,2.25,4.81,3.46-1.57,2.54,4.64,5.64,11.23,5.62,2.48,0,10-2.59,16.63-5.76,13.49-6.43,16.93-10,12.68-12.76a6.49,6.49,0,0,1-2.48-5.58c.2-1.88-.4-2.63-2.92-2.54Zm-34.19,3.27a14.76,14.76,0,0,0-7.23,2.67c-2.74,2-2.29,2.48,2.14,2.29,3.12-.12,6.42-1.38,7.32-2.74C1344.46,3078.86,1343.23,3078.12,1341.18,3078.22Zm163.89,14.14a2.32,2.32,0,0,0-.93.38,3,3,0,0,0-.74,3.74,2.21,2.21,0,0,0,3.28.84,3,3,0,0,0,.73-3.74,2.2,2.2,0,0,0-2.34-1.22Zm-412.89,29.1c3-.43,9.71,2.51,10.33,4.86.33,1.26-.18,2.35-1.12,2.4-3,.14-11.6-5.62-10.21-6.81a2,2,0,0,1,1-.45Zm-530.79,94.1c-.56.12-1.14.29-1.67.45a13.09,13.09,0,0,0-1.68.64c-1.59.74-2.88,2.11-2.89,3.07,0,1.92,11.47-.92,13.41-3.37,1.11-1.4-3.26-1.63-7.17-.79Zm489.19-89.06a3.88,3.88,0,0,0-1.07.46c-1.4.86-2.32,2.44-2.08,3.54s1.6,1.24,3,.39,2.3-2.45,2.06-3.54c-.17-.82-.93-1.11-1.91-.85Zm-9.46,3.27a4.12,4.12,0,0,0-1.08.46c-1.41.86-2.33,2.44-2.1,3.53s1.6,1.24,3,.38,2.32-2.44,2.09-3.53c-.18-.82-.93-1.1-1.91-.84Zm-10.56,7.4a5.94,5.94,0,0,0-2.13,1.32,9.82,9.82,0,0,0-3.42,6.41c0,2.7.81,3,3.24,1a10.07,10.07,0,0,0,3.41-6.48c0-1.69-.25-2.45-1.1-2.28Zm-16.69,2.21c-3.15.7-8.13,4.48-7.65,6.74.22,1,2.78.51,5.83-1.16,3.83-2.1,5.05-3.58,4.11-5.07-.39-.61-1.24-.74-2.29-.51Zm402.63-26.54c-1.65.3-3.25,2.64-2.52,5.29.51,1.82-.12,4-1.34,4.82a3.14,3.14,0,0,0-1.07,3.82,2.21,2.21,0,0,0,3.37.69c1.25-.85,1.82-2.1,1.2-2.84s0-2.82,1.38-4.58,2-4.33,1.32-5.73a2.49,2.49,0,0,0-1.66-1.49,1.74,1.74,0,0,0-.68,0Zm201.48,9.29a6.4,6.4,0,0,1,1.23,0,10.43,10.43,0,0,1,7.51,5c3.62,6.43,3.57,8.29-.17,6.66-1.73-.76-3.92-.44-4.87.7s-3-.48-4.7-3.84-2.47-6.45-1.88-7.17a4.12,4.12,0,0,1,2.88-1.37ZM1446,3127.08c-2,.1-3.56,3.37-2,6.43,1,1.89,2.06,1.88,3.85-.05s1.85-3.45.21-5.34a2.55,2.55,0,0,0-2.08-1Zm-359.51,21.83a4.08,4.08,0,0,0-1.08.45c-1.37.85-2.19,2.45-1.86,3.58s1.75,1.32,3.13.47,2.18-2.45,1.84-3.58c-.24-.84-1-1.16-2-.92Zm473.38-19.57a2.37,2.37,0,0,0-.94.37,2.83,2.83,0,0,0-.61,3.73,2.37,2.37,0,0,0,3.4.88,2.83,2.83,0,0,0,.6-3.73,2.4,2.4,0,0,0-2.45-1.25Zm-1001,103.1a9.67,9.67,0,0,0-1.22.47c-1.66.78-3.1,2-3.23,2.71s1.16.64,2.82-.14,3.09-2,3.22-2.71c.1-.54-.54-.64-1.59-.33Zm877.83-90.76c-1,.23-3.46,2.1-7.11,5.74-7.37,7.34-11.42,17-8,19.3,1.22.83,1.19,2.57-.08,4.26-2.45,3.28,2.89,10.08,7.86,10,1.78,0,3.32,3,3.55,6.8.31,5.14-.88,7.38-4.71,9.05-2.8,1.21-4.19,2.25-3.1,2.32s.64,1.79-1,3.82c-2.5,3.08-2.23,3.68,1.72,3.63,7.86-.1,8.1,4.85.33,8-9.88,4-9.3,6.89.79,3.87,4.49-1.34,9.45-2.3,11-2.1,10.7,1.37,16.6-1.51,19.13-9.46,1.28-4,.8-5.5-1.73-5.48-4,0-5.82-2.63-6.93-10.07-.78-5.21-8.14-16-13.38-19.66-2.1-1.47-1.72-3.4,1.47-8.39,4.07-6.36,4.06-6.48-.9-5-7.17,2.12-8.24-1.81-2.5-9.4,3.81-5,4.89-7.5,3.58-7.21Zm-863,95.91a7.73,7.73,0,0,0-1.21.46c-1.64.77-3,2-3.06,2.75s1.26.71,2.89-.07,3-2,3-2.76c.05-.57-.62-.68-1.67-.38Zm840.45-90.66a2.79,2.79,0,0,0-1,.4,3,3,0,0,0-1,3.74,2.25,2.25,0,0,0,3.36.77,3,3,0,0,0,1-3.74,2.13,2.13,0,0,0-2.36-1.17Zm159.67-.34a2.46,2.46,0,0,0-1,.37,2.79,2.79,0,0,0-.59,3.72,2.42,2.42,0,0,0,3.44.89,2.77,2.77,0,0,0,.59-3.72,2.47,2.47,0,0,0-2.48-1.26Zm-947.32,82.86c-3.48.81-17.64,7.92-19.19,9.92a2.22,2.22,0,0,0-.43,2.27c.79,1.25,20.33-10.37,20.37-12.08l.38-.27-.48.23c-.07-.1-.23-.16-.65-.07Zm83.1-11.55a5.94,5.94,0,0,0-1.17.45c-1.57.81-2.75,2.17-2.68,3.05s1.44.91,3,.11,2.73-2.17,2.66-3.05c-.05-.66-.77-.84-1.81-.56Zm704-61.23a2.66,2.66,0,0,0-1,.4,3,3,0,0,0-1,3.74,2.28,2.28,0,0,0,3.38.77,3,3,0,0,0,1-3.74,2.15,2.15,0,0,0-2.37-1.17Zm138.37-.44c-2.06.05-3.4,3.29-1.56,6.39,1.14,1.92,2.23,1.93,3.92,0s1.64-3.41-.17-5.33a2.86,2.86,0,0,0-2.19-1.09ZM520.89,3257.53a8.39,8.39,0,0,0-1.22.45c-1.65.75-3,1.93-3,2.65s1.3.66,2.94-.09,3-1.94,3-2.66c0-.53-.66-.64-1.71-.35Zm81.59-13.48a7,7,0,0,0-1.19.44c-1.61.78-2.86,2.05-2.84,2.84s1.39.79,3,0,2.84-2,2.81-2.84c0-.6-.73-.75-1.78-.46Zm407.94-52.76a4.36,4.36,0,0,0-1.1.44c-1.41.84-2.24,2.41-1.89,3.51s1.8,1.28,3.2.45,2.23-2.41,1.88-3.51c-.25-.82-1.08-1.13-2.09-.89Zm-293.23,38.13a1.94,1.94,0,0,0-.53.13c-2.44.82-5.52,4.72-5.5,7,0,.75,1.15.73,2.51,0,3.08-1.58,5.67-7.32,3.52-7.19ZM594,3250.11a8.2,8.2,0,0,0-1.2.45c-1.6.76-2.83,2-2.79,2.82s1.42.79,3,0,2.82-2,2.78-2.83c0-.6-.76-.75-1.81-.47Zm1770.49-8.17a1.75,1.75,0,0,0-.79.13c-.77.4-.24,1.62,1.13,2.69s3.1,1.58,3.88,1.17.26-1.61-1.12-2.68a6,6,0,0,0-3.1-1.31Zm-850.26-66.4c-2.09.07-3.52,3.32-1.74,6.4,1.11,1.92,2.21,1.92,4,0s1.74-3.42,0-5.34a2.85,2.85,0,0,0-2.19-1.07Zm18.1,2.35a2.47,2.47,0,0,0-1,.38,2.81,2.81,0,0,0-.72,3.73,2.44,2.44,0,0,0,3.49.86,2.82,2.82,0,0,0,.71-3.74,2.43,2.43,0,0,0-2.5-1.23Zm-124.29,1.3a4.64,4.64,0,0,0-3.08,1.95c-1.43,1.75-1.94,3.89-1.12,4.81s-.83,2.35-3.66,3.18c-3.89,1.14-4.61,2.27-2.9,4.61,1.56,2.15,1.52,3.58-.21,4.71-2.17,1.42-4.24,11.08-2.34,11.05.39,0,5-2.24,10.31-5,8-4.13,9.84-6.31,11-13.39,1.09-6.89.42-8.88-3.56-10.82a8.37,8.37,0,0,0-4.39-1.14Zm-865.53,84.23a8.09,8.09,0,0,0-1.2.44c-1.62.75-2.88,2-2.84,2.71s1.4.74,3,0,2.86-2,2.83-2.73c0-.57-.74-.7-1.8-.42Zm1701.1-32.85c-1.46-.19-1.69.51-.52,1.56s1.94,4.57,1.67,7.82c-.41,5,.43,7,5.36,12.49,3.42,3.85,8.5,12.87,11.91,21.84,4.82,12.66,6.15,15.32,9.14,15.6,2,.18,3.18-.76,2.64-2.15a9.2,9.2,0,0,0-3.83-4c-3.15-1.63-7.91-11.87-6.4-13.67.53-.63,2.78,0,5,1.36,4.4,2.76,4.25.21-.22-3.22a91.93,91.93,0,0,1-20-30.28c-1.42-4.8-3-7.08-4.8-7.32ZM2380.74,3251a1.82,1.82,0,0,0-.81.13c-.78.4-.28,1.61,1.08,2.67s3.1,1.56,3.9,1.15.29-1.59-1.08-2.65a5.79,5.79,0,0,0-3.09-1.3ZM525.52,3269c-2.46.49-5.77,2.3-5.71,3.58,0,.72,1,1.18,2.1,1,3.2-.53,7.29-3.85,5.69-4.57a3.91,3.91,0,0,0-2.08,0Zm184.56-28.39c-2.13.35-5.05,3.11-4.62,5.31.26,1.36,1.37,1.21,4-.54s3.28-3,2.35-4.23a1.63,1.63,0,0,0-1.72-.54ZM510.76,3276a8,8,0,0,0-1.21.42c-1.61.73-2.86,1.92-2.8,2.65s1.44.72,3.05,0,2.84-1.92,2.79-2.66c0-.55-.77-.68-1.83-.4Zm1903.36-11.81a1.86,1.86,0,0,0-.82.13c-.8.39-.31,1.57,1,2.6s3.1,1.53,3.92,1.14.32-1.57-1-2.6a5.88,5.88,0,0,0-3.1-1.27Zm-1422.33-47.3a3.88,3.88,0,0,0-2.13,1.07c-2.23,1.82-2.58,3.49-1.23,5.74,2.66,4.43,6.89,1.4,5.49-3.93-.51-1.93-1.15-2.9-2.13-2.88Zm-284.93,34.3a.39.39,0,0,0-.25.08c-.83.56-1.79,3.68-2,6.92s.4,5.05,1.26,4.05,1.63-4.12,1.84-6.93c.18-2.45-.19-4.11-.83-4.12Zm1619.68,14.56c-2.11-.21-2.26,2.17.76,4.8,1.88,1.63,3,1.76,4,.49s.44-2.46-2.14-4.18a6.17,6.17,0,0,0-2.67-1.11ZM727.1,3264.22c-1,.19-1.55.58-1.4,1.09.26.9,2.47,1.42,4.89,1.14s4.71,1.17,5.12,3.21,1.87,3.59,3.16,3.45c4-.42-4-8.49-8.93-9a10.51,10.51,0,0,0-1.76,0,6.59,6.59,0,0,0-1.08.12Zm404.89-34c-2.24.41-7.09,3.17-12.81,7.9-10.07,8.35-11,9.69-8.81,13.42,2.37,4.1,6.85,3.85,19.24-1.18,3.07-1.25,3.77-.93,2.2,1.12a9.41,9.41,0,0,0-1.35,6.87c.84,3.63,1.13,3.56,4.66-.5,2.45-2.82,4.21-3.47,5-1.9a2.48,2.48,0,0,0,3.63.92,3,3,0,0,0,1.37-3.62c-.56-1.19-2.23-1.37-3.69-.48-1.68,1-1.82-.19-.44-3.1,3.14-6.62-3.65-13-11.12-10.45-5.57,1.92-5.57,1.85-.6-3,4.65-4.54,5-6.41,2.76-6Zm-186,15.53a1.49,1.49,0,0,1,1.67,2,3.59,3.59,0,0,1-3,2.38,1.49,1.49,0,0,1-1.68-2A3.65,3.65,0,0,1,946,3245.72Zm143-7.06a7.15,7.15,0,0,0-2,.54c-3.79,1.56-3.87,2-.39,4.73,4.46,3.51,8.92,3.74,11.48.49,2.22-2.82-4.13-6.34-9.11-5.76Zm1237.65,36a1.93,1.93,0,0,0-.87.18c-.91.48-.61,1.76.62,2.85s3,1.54,3.87,1.06.62-1.75-.62-2.84a4.75,4.75,0,0,0-3-1.25Zm-4.22,5a2,2,0,0,0-.88.18c-.92.49-.65,1.78.56,2.87s2.94,1.53,3.88,1.05.65-1.77-.56-2.86a4.66,4.66,0,0,0-3-1.24ZM948,3257.34a11.08,11.08,0,0,1,4.22,1c2.94,1.19,6.1,5.3,7.1,9.13,1.52,5.83,3.57,7.19,12.4,8.21,5.81.67,10.73,2.47,10.94,4a2,2,0,0,1-2.47,2.36c-1.67-.26-4.12,2.45-5.73,6.33-2.81,6.77-2.86,6.76-4.77,1.85-1.06-2.69-2.87-4.32-4.12-3.6s-1.39-.63-.22-3c1.38-2.81.66-5.11-2-6.45-3.47-1.74-5-1-9.78,4.31-3.12,3.47-7.3,10.79-9.17,16.3-2.15,6.35-3.8,9-4.67,7.28-.76-1.48-.5-5.42.6-8.75s1.54-7,1-8.15c-1.34-3,5.36-9.47,11.18-10.84l4.74-2.32c-5.51-7-17.07-6.71-25.44-5.4-8.88,1.39-9.38,1.32-3.65-1.15a70.91,70.91,0,0,0,12.64-7.51c3.26-2.52,5.15-3.62,7.21-3.64Zm60.6,1.89a3.79,3.79,0,0,1,2.36.41c2.26,1.39-.41,5.58-3.69,5.79a3.32,3.32,0,0,1-3-1.9c-.84-1.94,1.81-4,4.3-4.3ZM2319,3286.61a2.11,2.11,0,0,0-.89.19c-.94.5-.7,1.8.48,2.88s2.93,1.53,3.88,1,.71-1.79-.48-2.88a4.56,4.56,0,0,0-3-1.23Zm-1195.34-31.22a3.41,3.41,0,0,0-1.09.42,3,3,0,0,0-1.4,3.6c.55,1.18,2.11,1.44,3.46.64a3,3,0,0,0,1.39-3.61,2,2,0,0,0-2.36-1.05Zm624.81-.48c3.81.13,4.75,1.4,5.19,5.68.41,4.09-.5,5.38-2.94,4.4a5.33,5.33,0,0,0-5.9,2c-1.37,1.85-1.76,3.39-.79,3.41s.71,1.46-.59,3.2c-1.82,2.44-.91,4.65,3.86,9.52,3.42,3.49,5.71,6.94,5.09,7.6s-.27,3.17.83,5.55c1.86,4,2.21,4,4.64.34s2.84-3.59,5.85.74c2.8,4,2.59,4.68-1.4,4.59-6.45-.15-8,3.8-2.67,6.88,2.44,1.41,3.77,2.58,3,2.61s-.31,4.32,1,9.5c2.1,8.3,1.71,9.52-2.66,10.63-9.17,2.32-15,1.21-19.84-3.87-4.55-4.78-4.59-5.61-1.61-15.77,2.6-8.9,2.51-11-.27-12.07-8.19-7.53-13.4-21.72-14.23-32.64,1.23-5.42,12.77-12,21.65-12.28.67,0,1.28,0,1.83,0Zm-759.79,14.8a1.91,1.91,0,0,1,2.31,1,3,3,0,0,1-1.57,3.48c-1.39.8-2.94.57-3.43-.55s.19-2.68,1.58-3.48a3.85,3.85,0,0,1,1.11-.41ZM2308.22,3293a2.17,2.17,0,0,0-.9.21c-1,.51-.76,1.82.4,2.91s2.89,1.52,3.87,1,.77-1.81-.4-2.9a4.36,4.36,0,0,0-3-1.23Zm-511.84-30.45c3,.1,3.65,10.64.78,13.79-3.42,3.74-5.46,3.35-7.73-1.36-1.88-3.88,3-12.57,7-12.43Zm506.14,35.26c-2.46-.15-4,1.36-2,3.24a8.54,8.54,0,0,0,4.16,2.16c3.3.29,3.72-3.08.56-4.68a6.82,6.82,0,0,0-2.69-.72Zm-37.33-2.68a.56.56,0,0,1,0,.12c-1.38.36-1.35,2.55,0,6.57,1.31,3.81.78,5.8-1.42,5.63-5.12-.41-5.36,2.58-.85,8.77,3.87,5.32,10.88,6.79,8,1.7-.88-1.55.42-1.93,3.48-1,2.83.9,5.74.4,6.93-1.24a6.55,6.55,0,0,1,5.17-2.56c4,.32,6.41-6.52,2.9-8.31a8.94,8.94,0,0,0-5.49-.53c-1.6.43-6.15-1.67-10.17-4.68-4.22-3.16-7-4.61-8.42-4.37l-.19-.14Zm30.39,6.13a2.44,2.44,0,0,0-.92.22c-1,.52-.83,1.85.3,3s2.86,1.52,3.86,1,.85-1.85-.29-2.94a4.25,4.25,0,0,0-3-1.22ZM1005.06,3286a2.6,2.6,0,0,1,.66,0c.48,0,.57.38.27.89-1,1.78-5.62,4.33-10.19,5.7s-12.49,5.33-17.55,8.76a66,66,0,0,1-12.25,6.36c-.75-.94,19.82-13.2,25.84-16.23,6.67-3.24,11.24-5.14,13.22-5.45Zm1291,23a2.35,2.35,0,0,0-.93.22c-1,.53-.88,1.86.23,3a3.68,3.68,0,0,0,3.87,1c1-.53.89-1.86-.23-3A4.08,4.08,0,0,0,2296.06,3308.9ZM1500.47,3283c-2.2.08-3.72,3.33-1.87,6.41,1.15,1.92,2.3,1.91,4.16,0s1.86-3.43,0-5.34a3,3,0,0,0-2.3-1.07Zm768.27,41.39c-2.74-.1-4.3,1.58-3.85,4.8,1.68,11.82.8,14.4-3.21,11.79-2.44-1.58-4.26-1.8-4.88-.6-.53,1,.35,2.62,1.93,3.43,2,1,2.18,2.27.66,4.17s-3.13,2.15-5.95.3-4-1.39-4.89,2.45-3.36,5.06-11.16,5.59c-6.56.44-11.68,2.43-14.92,5.84-3.59,3.78-5.86,4.6-8.34,2.93-6.09-4.11-6.1,0-.12,6.33,3.22,3.37,5.23,7.07,4.52,8.25s-.48,3.57.48,5.25c3.06,5.39,7.15,3.42,9.78-4.71,1.87-5.74,3.69-7.59,6.82-6.8a7.46,7.46,0,0,0,6.9-2c2.21-2.61,1.68-3.45-3.45-5.31-6-2.17-6-2.18-.74-2.07a12.62,12.62,0,0,1,8.92,4.71c3.56,4.53,3.73,4.53,6.89.8,2.19-2.59,6.24-3.69,12.81-3.42l9.67.44c.5-4.89.72-7.33,1.08-12.21.49-6.7,1.34-12.8,2.12-13.55,2.29-2.21-1.21-12-5-14.31a13.57,13.57,0,0,0-6-2.14Zm-768.58-24.83c-1.51.1-2.91,1.83-2.92,5.19,0,4.63,1,5.88,3.73,4.81a4.87,4.87,0,0,0,3-5.19c-.63-3.32-2.29-4.91-3.8-4.81Zm-25.46,3a3.43,3.43,0,0,0-.9.08,4,4,0,0,0-1.2.54,12,12,0,0,1-4.65,1.92,1.86,1.86,0,0,0-1.81,1.84c0,1.28,0,1.92,0,3.2,0,.75,1.35.45,3-.62a17.81,17.81,0,0,1,4.81-2.22c1-.19,2.41-.53,3.14-.7s.69-1.46-.12-2.82a2.7,2.7,0,0,0-2.23-1.22Zm-17.38,9.67a3,3,0,0,0-1,.39,2.76,2.76,0,0,0-.87,3.74,2.62,2.62,0,0,0,3.66.82,2.77,2.77,0,0,0,.87-3.74,2.52,2.52,0,0,0-2.61-1.21Zm73.51,8.71c-8.54,0-9.35,3.07-1.76,6.79,7.82,3.83,9,3.57,9-1.89,0-3.79-1.64-4.88-7.24-4.9Zm36.86,1.12a2.64,2.64,0,0,0-1.82,4.11,2.66,2.66,0,1,0,4.46-2.88A2.62,2.62,0,0,0,1567.69,3322Zm-50.42,7.18a2.78,2.78,0,0,0-1,.38,2.73,2.73,0,0,0-.82,3.74,2.66,2.66,0,0,0,3.69.84,2.72,2.72,0,0,0,.82-3.74,2.59,2.59,0,0,0-2.64-1.22Zm86.63.35a2.87,2.87,0,0,0-1.05.37,2.74,2.74,0,1,0,3.71.87,2.64,2.64,0,0,0-2.66-1.24Zm-12,2.35a3,3,0,0,0-1.05.38,2.73,2.73,0,1,0,3.71.86,2.64,2.64,0,0,0-2.66-1.24Zm50.7,7.08a5.59,5.59,0,0,0-3.07.73,2.85,2.85,0,0,0-1.09,3.86c1.93,3,7.79,3,9.58-.07,1.3-2.22-2.13-4.47-5.42-4.52Zm-113.26,0a2.78,2.78,0,0,0-1,.38,2.71,2.71,0,0,0-.81,3.74,2.67,2.67,0,0,0,3.7.84,2.72,2.72,0,0,0,.81-3.73,2.59,2.59,0,0,0-2.65-1.23Zm-9.64,2.43a2.78,2.78,0,0,0-1,.38,2.72,2.72,0,0,0-.82,3.74,2.67,2.67,0,0,0,3.7.84,2.72,2.72,0,0,0,.82-3.74,2.6,2.6,0,0,0-2.65-1.22Zm74.24,2a2.92,2.92,0,0,0-2,.67c-.79.81.65,1.33,3.19,1.24,2.81-.1,3.35-.65,1.41-1.44a6.64,6.64,0,0,0-2.65-.47Zm603.49,25.83a2.87,2.87,0,0,0-1,.29,2,2,0,0,0-.36,3.19,3.22,3.22,0,0,0,3.81.85,2,2,0,0,0,.36-3.18,3.29,3.29,0,0,0-2.8-1.15Zm-1137.94-3.18a3.25,3.25,0,0,0-1.09.39,2.49,2.49,0,1,0,3.64.7,2.4,2.4,0,0,0-2.55-1.09Zm285.78-2.05a3.07,3.07,0,0,0-1.07.39,2.74,2.74,0,0,0-.93,3.72,2.65,2.65,0,0,0,3.69.8,2.74,2.74,0,0,0,.93-3.72,2.51,2.51,0,0,0-2.62-1.19Zm862.77,11.87a2.68,2.68,0,0,0-1,.29,2,2,0,0,0-.39,3.17,3.21,3.21,0,0,0,3.81.84,2,2,0,0,0,.39-3.16,3.26,3.26,0,0,0-2.8-1.14Zm-868.3,17.24a3.07,3.07,0,0,0-1.07.39,2.67,2.67,0,1,0,3.71.81,2.56,2.56,0,0,0-2.64-1.2Zm21.87,2.32a3.27,3.27,0,0,0-1.07.38,2.73,2.73,0,0,0-.9,3.73,2.68,2.68,0,0,0,3.72.81,2.71,2.71,0,0,0,.89-3.72,2.57,2.57,0,0,0-2.64-1.2Zm856.91,7.76a3,3,0,0,0-1,.3,2,2,0,0,0-.56,3.18,3.15,3.15,0,0,0,3.79.79,2,2,0,0,0,.56-3.17,3.11,3.11,0,0,0-2.75-1.1Zm-869.11-5.28a3.12,3.12,0,0,0-1.08.39,2.67,2.67,0,1,0,3.72.81,2.57,2.57,0,0,0-2.64-1.2Zm-372.81,8.33a3.43,3.43,0,0,0-1.09.37,2.46,2.46,0,0,0-1,3.45,2.75,2.75,0,0,0,3.69.72,2.46,2.46,0,0,0,1-3.45,2.52,2.52,0,0,0-2.6-1.09Zm363-3.43a2.87,2.87,0,0,0-1.07.38,2.67,2.67,0,1,0,3.72.81,2.56,2.56,0,0,0-2.65-1.19Zm-353.37,5.55a3.28,3.28,0,0,0-1.08.36,2.48,2.48,0,0,0-1,3.46,2.76,2.76,0,0,0,3.7.73,2.48,2.48,0,0,0,1-3.46A2.55,2.55,0,0,0,986.25,3408.38ZM2210,3411.83c-3.2,0-6.61,4.25-4.4,7.11,1.31,1.71,3,1.42,5.58-.89s2.82-3.91.93-5.47A3.27,3.27,0,0,0,2210,3411.83ZM1771.05,3413a2.9,2.9,0,0,0-1.06.36,2.6,2.6,0,0,0-.77,3.66,2.77,2.77,0,0,0,3.75.84,2.58,2.58,0,0,0,.77-3.65,2.7,2.7,0,0,0-2.69-1.21Zm-795,4.49a3.3,3.3,0,0,0-1.08.37,2.43,2.43,0,0,0-1,3.44,2.8,2.8,0,0,0,3.71.74,2.45,2.45,0,0,0,1-3.45,2.57,2.57,0,0,0-2.62-1.1Zm12.19-.13a3.3,3.3,0,0,0-1.08.37,2.46,2.46,0,0,0-1,3.46,2.79,2.79,0,0,0,3.71.74,2.46,2.46,0,0,0,1-3.47,2.59,2.59,0,0,0-2.62-1.1Zm1207.35,6.37a3,3,0,0,0-1.05.32,2.09,2.09,0,0,0-.69,3.21,3,3,0,0,0,3.76.77,2.1,2.1,0,0,0,.7-3.22,2.93,2.93,0,0,0-2.72-1.08Zm-1214.91.46a3.22,3.22,0,0,0-1.07.36,2.42,2.42,0,0,0-.94,3.45,2.79,2.79,0,0,0,3.71.75,2.45,2.45,0,0,0,.94-3.46,2.6,2.6,0,0,0-2.64-1.1Zm12.2-.1a3.22,3.22,0,0,0-1.07.36,2.43,2.43,0,0,0-.94,3.46,2.8,2.8,0,0,0,3.72.75,2.44,2.44,0,0,0,.93-3.46,2.6,2.6,0,0,0-2.64-1.11ZM2186,3425.73a3,3,0,0,0-1.06.32,2.12,2.12,0,0,0-.7,3.23,3,3,0,0,0,3.76.76,2.11,2.11,0,0,0,.71-3.23,2.9,2.9,0,0,0-2.71-1.08Zm-15.16.3a4.69,4.69,0,0,0-1.71.91c-3.42,2.52-4.38,12.95-1.42,15.51,2.26,2,2.56,1.54,3.78-8.83.69-5.78.61-7.81-.64-7.59Zm-1183,4.86a3.28,3.28,0,0,0-1.08.36,2.44,2.44,0,0,0-.91,3.46,2.68,2.68,0,0,0,3.5.9,2.83,2.83,0,0,1,3.64,1.11,3,3,0,0,0,3.88,1,2.42,2.42,0,0,0,.89-3.46,2.64,2.64,0,0,0-3.49-.9,2.84,2.84,0,0,1-3.64-1.11,2.94,2.94,0,0,0-2.79-1.33Zm-34,4.05a16.93,16.93,0,0,0-9.81,3c-4.66,3.11-4.61,3.2,1.3,5.2,3.35,1.13,5.81,2.76,5.47,3.54-1.27,2.93-.5,3.83,2,2.43,1.75-1,1.65-2.45-.28-4.59s-1.82-3.33-.2-3.14c8.81,1.06,21.39,6.61,29.26,13.07a12.11,12.11,0,0,0,.1,3.16c.53,3,14.28,1.86,17.15-1.37,2.23-2.5-1.09-4.94-17.09-12.41-8.56-4.14-18.18-8.57-27.88-8.86Zm51,2.65a3.22,3.22,0,0,0-1.07.36,2.42,2.42,0,0,0-.88,3.47,2.81,2.81,0,0,0,3.73.77,2.43,2.43,0,0,0,.88-3.47A2.65,2.65,0,0,0,1004.82,3437.59Zm-510.27,4.67a4,4,0,0,0-1.08.28c-1.29.56-1.67,1.75-.9,2.64a3.4,3.4,0,0,0,3.73.58c1.28-.56,1.65-1.75.89-2.65a3,3,0,0,0-2.64-.85Zm520-2.43a3,3,0,0,0-1.07.36,2.43,2.43,0,0,0-.87,3.48,2.81,2.81,0,0,0,3.73.77,2.44,2.44,0,0,0,.87-3.48,2.65,2.65,0,0,0-2.66-1.13Zm-511.25,5.58c-2.58.09-4.89,1.6-3.55,3.16a5.45,5.45,0,0,0,3.59,1.63c3.42,0,5.26-3.17,2.55-4.36a5.92,5.92,0,0,0-2.59-.43Zm506.31,1.24a3.15,3.15,0,0,0-1.07.36,2.42,2.42,0,0,0-.85,3.48,2.84,2.84,0,0,0,3.74.78,2.43,2.43,0,0,0,.84-3.48,2.68,2.68,0,0,0-2.66-1.14Zm-495.75,2.51a3.51,3.51,0,0,0-1.07.27c-1.54.69-1.49,1.87.16,3.29,1.41,1.21,2,2.67,1.2,3.24s-.68,1.87.24,2.9a4.81,4.81,0,0,0,7.62-.11c.92-1.11-.36-3.11-2.85-4.42s-3.71-2.37-2.7-2.37,1.14-.83.29-1.82a3.46,3.46,0,0,0-2.89-1Zm1588,7.74a6.33,6.33,0,0,0-5.08,3.38c-1.06,2.41-.29,3.24,2.55,2.73,2.24-.4,4.51-1.94,5.09-3.45.78-2-.67-2.84-2.56-2.66Zm-1086.06,3.68c-3.72-.1-6.09.41-5.32,1.54s-.81,2.51-3.23,3.39c-6.77,2.47,8.59,4.82,17.37,2.65,3.86-.95,8-1.19,9.14-.52s2.06.2,2-1-3.07-3-6.78-4a58.7,58.7,0,0,0-13.22-2Zm32.1,4.05c-2.58.08-4.84,2.07-3.44,4.14a5.15,5.15,0,0,0,3.63,2.17c3.41,0,5.16-4.13,2.41-5.73a4.88,4.88,0,0,0-2.6-.59Zm-67.48,1.74a6.08,6.08,0,0,0-3.11.68,2.54,2.54,0,0,0-1.14,3.58c1.94,2.78,7.85,2.76,9.69-.08,1.33-2.07-2.11-4.15-5.44-4.18Zm1190.16-.47c-3.66.18-4.47,2.11-6.1,10.44-2.32,11.78-.6,15.43,8.61,17.3,6.1,1.24,13.32,11.89,10,14.85-1.05.94-.43,1,1.35.1s2.59-2.72,1.78-4.07h-.08c-.84-1.4.22-1.26,2.4.33,7.9,5.77,3.79-.36-7.12-10.32-12.37-11.3-13.07-12.65-7.45-16.64,6.17-4.39,5.12-11.66-1.67-12-.65,0-1.23-.08-1.75,0Zm-1111.94,3.73a3,3,0,0,0-1.06.36,2.43,2.43,0,0,0-.76,3.52,2.84,2.84,0,0,0,3.75.81,2.43,2.43,0,0,0,.76-3.52,2.74,2.74,0,0,0-2.69-1.17Zm-122,1.48a2.93,2.93,0,0,0-1.06.34,2.28,2.28,0,0,0-.73,3.38,3,3,0,0,0,3.77.8,2.29,2.29,0,0,0,.72-3.39,2.81,2.81,0,0,0-2.7-1.13Zm131.78.88a3,3,0,0,0-1.06.36,2.44,2.44,0,0,0-.75,3.53,2.85,2.85,0,0,0,3.75.82,2.46,2.46,0,0,0,.76-3.54,2.78,2.78,0,0,0-2.7-1.17Zm9.81,2.37a3,3,0,0,0-1.06.36,2.45,2.45,0,0,0-.74,3.54,2.84,2.84,0,0,0,3.75.82,2.46,2.46,0,0,0,.75-3.54,2.76,2.76,0,0,0-2.7-1.18Zm217.23,5.85a2.92,2.92,0,0,0-1.06.37,2.64,2.64,0,0,0-.79,3.69,2.76,2.76,0,0,0,3.75.84,2.63,2.63,0,0,0,.78-3.69A2.66,2.66,0,0,0,1295.46,3480.21Zm14.67,2.46a3.05,3.05,0,0,0-1.07.38,2.63,2.63,0,0,0-.78,3.69,2.75,2.75,0,0,0,3.74.85,2.65,2.65,0,0,0,.79-3.7,2.68,2.68,0,0,0-2.68-1.22Zm-231.64.95a3,3,0,0,0-1,.35,2.44,2.44,0,0,0-.72,3.54,2.86,2.86,0,0,0,3.76.83,2.45,2.45,0,0,0,.72-3.54,2.79,2.79,0,0,0-2.71-1.18Zm1238.67-2.93a3.89,3.89,0,0,0-1.09.32,2.1,2.1,0,0,0-1.08,3,2.94,2.94,0,0,0,3.67.61,2.09,2.09,0,0,0,1.09-3,2.64,2.64,0,0,0-2.59-.94Zm129-.67a4.23,4.23,0,0,0-1.09.31c-1.33.62-1.82,1.88-1.14,2.81a3.09,3.09,0,0,0,3.66.53c1.34-.61,1.83-1.87,1.15-2.8a2.74,2.74,0,0,0-2.58-.85Zm-1145.69,12.27a3.05,3.05,0,0,0-1.06.37,2.63,2.63,0,0,0-.76,3.69,2.75,2.75,0,0,0,3.74.85,2.63,2.63,0,0,0,.77-3.69,2.65,2.65,0,0,0-2.69-1.22Zm9.75.05a2.86,2.86,0,0,0-1.06.37,2.63,2.63,0,0,0-.77,3.69,2.76,2.76,0,0,0,3.75.85,2.7,2.7,0,0,0-1.92-4.91Zm-229,.57a2.72,2.72,0,0,0-1,.35,2.3,2.3,0,0,0-.85,3.31,2.46,2.46,0,0,1-1.06,3.46,2.55,2.55,0,0,0-.88,3.67,2.87,2.87,0,0,0,3.76.85,2.3,2.3,0,0,0,.83-3.31,2.45,2.45,0,0,1,1.06-3.46,2.57,2.57,0,0,0,.9-3.68,2.78,2.78,0,0,0-2.71-1.19ZM2190,3489.1a3.39,3.39,0,0,0-1.09.35,2.29,2.29,0,0,0-1.08,3.25,2.84,2.84,0,0,0,3.68.65,2.3,2.3,0,0,0,1.08-3.25,2.55,2.55,0,0,0-2.59-1Zm119.22-.34a3.75,3.75,0,0,0-1.1.33,2.14,2.14,0,0,0-1.13,3.06,2.92,2.92,0,0,0,3.66.6,2.14,2.14,0,0,0,1.14-3.06,2.56,2.56,0,0,0-2.57-.93ZM1091.4,3502.3a3,3,0,0,0-1.05.35,2.42,2.42,0,0,0-.66,3.54,2.88,2.88,0,0,0,3.77.85,2.43,2.43,0,0,0,.66-3.54,2.82,2.82,0,0,0-2.72-1.2Zm1075.95-4.16c-2.26.11-4,3-2.4,5.64,1,1.64,2.2,1.61,4.26-.1s2.18-3,.42-4.66a3.07,3.07,0,0,0-2.28-.88Zm-1129.4,5.7a2.83,2.83,0,0,0-1,.34,2.37,2.37,0,0,0-.63,3.49,2.92,2.92,0,0,0,3.78.85,2.37,2.37,0,0,0,.62-3.49,2.86,2.86,0,0,0-2.73-1.19Zm958.87-.43a3.46,3.46,0,0,0-1.09.38,2.55,2.55,0,0,0-1.06,3.49,2.7,2.7,0,0,0,3.68.71,2.54,2.54,0,0,0,1.06-3.49,2.5,2.5,0,0,0-2.59-1.09Zm-949,2.87a3,3,0,0,0-1,.35,2.36,2.36,0,0,0-.62,3.49,2.92,2.92,0,0,0,3.77.86,2.38,2.38,0,0,0,.62-3.51,2.88,2.88,0,0,0-2.73-1.19Zm717.73,2.43a2.91,2.91,0,0,0-1.08.38,2.62,2.62,0,1,0,3.7.79,2.51,2.51,0,0,0-2.62-1.17Zm-688.41.33a3,3,0,0,0-1,.35,2.4,2.4,0,0,0-.63,3.53,2.89,2.89,0,0,0,3.77.85,2.41,2.41,0,0,0,.63-3.53,2.88,2.88,0,0,0-2.73-1.2Zm1082.34-4.46a3.39,3.39,0,0,0-1.1.36,2.39,2.39,0,0,0-1.15,3.29,2.75,2.75,0,0,0,3.65.64,2.38,2.38,0,0,0,1.15-3.29,2.44,2.44,0,0,0-2.55-1Zm-163.28,7.91a3.4,3.4,0,0,0-1.08.38,2.56,2.56,0,0,0-1.09,3.49,2.67,2.67,0,0,0,3.66.71,2.56,2.56,0,0,0,1.09-3.49,2.46,2.46,0,0,0-2.58-1.09Zm177.45-4a3.39,3.39,0,0,0-1.1.36,2.38,2.38,0,0,0-1.18,3.28,2.75,2.75,0,0,0,3.64.62,2.37,2.37,0,0,0,1.18-3.27,2.43,2.43,0,0,0-2.54-1Zm-1088.83,7.63a2.83,2.83,0,0,0-1,.34,2.4,2.4,0,0,0-.61,3.53,2.9,2.9,0,0,0,3.77.87,2.42,2.42,0,0,0,.61-3.54,2.85,2.85,0,0,0-2.73-1.2Zm-67.38.47a.33.33,0,0,0-.21.14c-.63.6-.35,2.85.69,5s2.41,3.37,3,2.76.25-2.86-.78-5c-.9-1.86-2-3-2.72-2.89Zm1135.79-2c-1.81,0-8.79,9.38-9.14,12.17s2.7.15,6.74-5.69c2.49-3.61,3.56-6.52,2.4-6.48Zm41.56-.34a3.55,3.55,0,0,0-1.1.36,2.4,2.4,0,0,0-1.23,3.25,2.73,2.73,0,0,0,3.62.6,2.37,2.37,0,0,0,1.24-3.24,2.4,2.4,0,0,0-2.53-1ZM2061,3520a3.86,3.86,0,0,0-1.1.37,2.54,2.54,0,0,0-1.16,3.43,2.67,2.67,0,0,0,3.64.66,2.53,2.53,0,0,0,1.17-3.42,2.41,2.41,0,0,0-2.55-1Zm297.55-3.67a3.84,3.84,0,0,0-1.11.34c-1.38.68-2,2-1.39,3s2.2,1.17,3.58.49,2-2,1.39-3a2.35,2.35,0,0,0-2.47-.85Zm101.83-4.53a4.28,4.28,0,0,0-1.13.33c-1.39.63-2,1.89-1.45,2.78s2.17,1.08,3.57.44,2-1.89,1.46-2.78a2.39,2.39,0,0,0-2.45-.77Zm-267.9,12.39c-1.46,0-3.91,1.05-8.1,3-5.14,2.37-7,2.59-6.81.76.32-2.89-7.85,5-8.31,8-.16,1.09,1.5.75,3.65-.73,4.42-3.06,8.75-1.6,8.06,2.7s4.42,4.77,9.39.86a12,12,0,0,0,4.29-9.18c-.05-3.72-.29-5.38-2.17-5.35Zm-269.52,8c-1.72-.07-3.31,1.91-4.25,6-2.28,9.78.93,13.78,7.84,9.63,2.49-1.5,2.75-3.59,1.12-9.33-1.16-4.11-3-6.19-4.71-6.25Zm-44.77,3.31a3.23,3.23,0,0,0-1.09.38,2.71,2.71,0,0,0-1.09,3.61,2.62,2.62,0,0,0,3.65.73,2.69,2.69,0,0,0,1.09-3.61,2.38,2.38,0,0,0-2.56-1.11ZM2340.9,3521a4.39,4.39,0,0,0-1.12.35c-1.38.68-2,2-1.4,3s2.19,1.19,3.57.5,2-2,1.42-3A2.35,2.35,0,0,0,2340.9,3521Zm9.32,1.51a3.83,3.83,0,0,0-1.12.35c-1.39.68-2,2-1.43,3s2.18,1.17,3.57.49,2-2,1.43-3a2.29,2.29,0,0,0-2.45-.84Zm-106.85,10.39a4.64,4.64,0,0,0-2.07,1.11,6,6,0,0,0-2.11,5.82c.68,2.53,1.72,2.88,4,1.15a6.09,6.09,0,0,0,2.14-5.88c-.44-1.58-1-2.31-1.93-2.2Zm-365.84,12a3.34,3.34,0,0,0-1.08.39,2.72,2.72,0,0,0-1.12,3.61,2.6,2.6,0,0,0,3.64.72,2.7,2.7,0,0,0,1.11-3.6,2.37,2.37,0,0,0-2.55-1.12Zm123.07-.84a3.6,3.6,0,0,0-1.1.38,2.66,2.66,0,0,0-1.21,3.5,2.59,2.59,0,0,0,3.61.66,2.64,2.64,0,0,0,1.22-3.49,2.32,2.32,0,0,0-2.52-1Zm280.34-10.62a3.92,3.92,0,0,0-1.11.37c-1.39.7-2,2.1-1.44,3.12s2.17,1.22,3.56.51,2-2.11,1.44-3.12A2.26,2.26,0,0,0,2280.94,3533.45Zm41.09-1.94a4.16,4.16,0,0,0-1.12.35c-1.39.7-2,2.07-1.47,3s2.16,1.19,3.55.49,2-2.06,1.48-3a2.26,2.26,0,0,0-2.44-.85Zm-184.52,9.63-15,12.21c-8.28,6.76-16.66,12.4-18.6,12.49s-4.39,2-5.47,4.39-4.59,4.69-7.79,5.25c-4.82.84-5.89,2.09-6.3,7.44-.27,3.55,1.64,10.28,4.12,14.95,3.89,7.3,5.61,8.41,13,7.94,4.72-.3,9.13.14,9.88,1s2.89.43,4.72-.84,3.86-1.7,4.53-1,1.33-1.56,1.41-5.14c.09-3.86,1.33-7.18,3.11-8.16s5.33-5.08,8.1-9.24,6.23-7.65,7.77-7.73c2.11-.12,2.27-.92.58-3.15-1.25-1.63-1.46-3.88-.49-5s-.47-2.5-3.21-3c-4.92-1-4.88-1.08,2.74-7.26l7.71-6.2-5.41-4.43-5.38-4.47Zm21.93,1.73a3.66,3.66,0,0,0-1.11.38,2.53,2.53,0,0,0-1.36,3.3c.59,1.08,2.2,1.32,3.57.58a2.55,2.55,0,0,0,1.37-3.3,2.26,2.26,0,0,0-2.47-1Zm152.1-6.95a4.37,4.37,0,0,0-1.13.36c-1.39.7-2,2.08-1.48,3.07s2.14,1.19,3.54.49,2.05-2.08,1.5-3.07A2.24,2.24,0,0,0,2311.54,3535.92Zm-432.34,18.3a3.48,3.48,0,0,0-1.09.39,2.74,2.74,0,0,0-1.14,3.61,2.57,2.57,0,0,0,3.62.71,2.73,2.73,0,0,0,1.15-3.6,2.36,2.36,0,0,0-2.54-1.11Zm530.36-19.89a4.46,4.46,0,0,0-1.13.35c-1.42.67-2.11,2-1.6,2.89s2.09,1.08,3.51.41,2.13-2,1.61-2.88a2.2,2.2,0,0,0-2.39-.77Zm-399.11,20.06c3.32,4.44,5,6.65,8.19,11.06,4.45,6.07,7.69,12.74,7.35,14.83s1.66,6,4.43,8.76,4.76,6.57,4.41,8.5c2.31,8.68,9.31,18.51,17.38,22.49,1.38-.43,3.42-3.17,4.54-6.15a27.08,27.08,0,0,1,5-8.28c3.4-3.25,2-7.93-1.76-5.83-3,1.67-14.62-9.33-12.56-11.83.77-1-3.4-6.75-9.4-13s-11.35-12.61-11.69-14.13-4-3.58-8.22-4.6l-7.64-1.84Zm-134.5,9.26a3.48,3.48,0,0,0-1.09.39,2.76,2.76,0,0,0-1.16,3.61,2.55,2.55,0,0,0,3.6.71,2.75,2.75,0,0,0,1.17-3.61,2.31,2.31,0,0,0-2.52-1.1Zm206.71-4.69a3.66,3.66,0,0,0-1.11.38,2.67,2.67,0,0,0-1.36,3.41c.59,1.11,2.19,1.36,3.56.6a2.66,2.66,0,0,0,1.37-3.4,2.2,2.2,0,0,0-2.46-1Zm-589.5,14.41a3,3,0,0,0-1.05.38,2.73,2.73,0,0,0-.81,3.74,2.64,2.64,0,0,0,3.68.84,2.74,2.74,0,0,0,.82-3.74,2.57,2.57,0,0,0-2.64-1.22Zm516.4-4.84a3.63,3.63,0,0,0-1.1.39,2.73,2.73,0,0,0-1.33,3.49,2.52,2.52,0,0,0,3.56.63,2.72,2.72,0,0,0,1.33-3.49,2.21,2.21,0,0,0-2.46-1Zm192.14-8.8a3.62,3.62,0,0,0-1.12.38c-1.4.74-2,2.2-1.52,3.24s2.12,1.26,3.52.52,2.06-2.19,1.52-3.24a2.12,2.12,0,0,0-2.4-.9Zm-713.3,23.4a3.08,3.08,0,0,0-1.05.38,2.73,2.73,0,0,0-.81,3.74,2.63,2.63,0,0,0,3.67.84,2.72,2.72,0,0,0,.81-3.73,2.55,2.55,0,0,0-2.62-1.23Zm-574.88-9.46a2.53,2.53,0,0,0-1,.29c-1.12.64-1.18,2.13-.19,3.3a3.18,3.18,0,0,0,3.81.94c1.11-.64,1.17-2.13.19-3.31a3.3,3.3,0,0,0-2.82-1.22Zm1284.09-3.52c-2.62.15-4,2.21-5,7.25-1.54,7.7,1.4,6.63,5.86-2,2.12-4.1,1.84-5.38-.9-5.22Zm-180.16,9.25a3.66,3.66,0,0,0-1.1.4,2.76,2.76,0,0,0-1.38,3.48c.58,1.14,2.17,1.39,3.53.61a2.76,2.76,0,0,0,1.39-3.48,2.17,2.17,0,0,0-2.44-1Zm435.67-26.74a4.9,4.9,0,0,0-1.15.36c-1.46.67-2.26,1.93-1.85,2.8s2,1,3.43.31,2.28-1.92,1.86-2.79c-.32-.65-1.22-.88-2.29-.68Zm-280.67,21c-1.58.06-3.6.21-6.14.42-7.49.62-14.86,2.14-16.31,3.35-6.05,7.18-11.84,18.76-11.64,28.24a4.07,4.07,0,0,1-.15,4.87c-1.7,1.87,0,10.66,2.07,10.5.35,0,1.14-3.82,1.62-8.41,1.67-16.07,10.16-20.21,9.37-4.6-.44,8.67,3.49,8.87,6.05.35,1.25-4.16.31-7.72-2.77-10.43-5.59-4.92-2.34-10.08,5.65-8.73,3.21.55,5.57,0,5.91-1.42s-3-1.83-8.3-1.11c-6,.82-9.07.25-9.36-1.73-.62-4.37,8.31-9,15.61-8.07a23.18,23.18,0,0,0,11.12-1.56c2.64-1.31,2-1.84-2.73-1.67Zm-691.19,19.22a2.66,2.66,0,0,0-1.84,4.11,2.64,2.64,0,0,0,3.67.85,2.73,2.73,0,0,0,.79-3.74,2.55,2.55,0,0,0-2.62-1.22Zm726.17-17a3.8,3.8,0,0,0-1.13.39c-1.41.74-2.11,2.2-1.62,3.24s2.06,1.22,3.47.48,2.13-2.2,1.63-3.24a2,2,0,0,0-2.35-.87Zm-1291.81,8.76a2.43,2.43,0,0,0-1,.28c-1.11.64-1.14,2.12-.14,3.31a3.21,3.21,0,0,0,3.81,1c1.09-.64,1.13-2.13.13-3.31a3.36,3.36,0,0,0-2.83-1.23Zm1503.72-22.2a4.66,4.66,0,0,0-1.15.37c-1.47.69-2.28,2-1.88,2.87s1.94,1,3.41.31,2.29-2,1.89-2.86c-.31-.66-1.2-.9-2.27-.69ZM906.1,3584.23c-2.2-.05-3.11,2.76-.67,5.62,1.52,1.77,2.67,1.83,4.17.23s1.22-3-1-4.77a4.17,4.17,0,0,0-2.51-1.08Zm19.5,3.07a2.44,2.44,0,0,0-1,.29c-1.1.64-1.14,2.13-.14,3.32a3.19,3.19,0,0,0,3.8,1c1.1-.64,1.14-2.13.14-3.32a3.38,3.38,0,0,0-2.83-1.24Zm1289.27-5.87c-3.81.44-1.84,3.29,4.93,5.24,5.15,1.48,5.23,1.92,1,4.47-2.91,1.75-4.29,3.81-3.61,5.37.76,1.76,1.84,1.82,3.41.19,8.36-2,19.63,4.39,24.65,11,1.83,4.16,1.43,4.88-4.11,9.26-5.05,4-5.31,4.54-1.69,3.22,2.37-.87,7.46-.21,11.25,1.47,7.72,3.44,16,3.29,16.56-.19.2-1.26,3.59-3.49,7.53-4.93,5.76-2.11,7.82-2,10.43.56,1.78,1.73,2.72,4.31,2.1,5.74s1.91,3.05,5.61,3.6c10.73,1.61,11.68,1,5.93-4.14-3-2.66-4.85-6.9-4.15-9.34s1.34-5,1.51-5.63c-7.63-9.14-22.74-14.32-34.07-17.29-5.81-1.46-8.72-2.21-14.57-3.71l-6.91,4.87c-6.64,4.7-7.06,4.78-10.43,1.66-1.94-1.79-2.59-4.6-1.44-6.23,2.15-3,.83-3.64-10.34-5.1a14.49,14.49,0,0,0-3.56-.07ZM2453.7,3563a4.8,4.8,0,0,0-1.15.37c-1.48.68-2.34,1.94-2,2.8s1.9,1,3.38.27,2.35-1.93,2-2.79c-.29-.64-1.17-.86-2.24-.65Zm-429.38,31.73a4,4,0,0,0-1.11.4,2.83,2.83,0,0,0-1.45,3.48c.55,1.13,2.12,1.37,3.5.58a2.82,2.82,0,0,0,1.46-3.47,2.09,2.09,0,0,0-2.4-1Zm214.33-12.79a4,4,0,0,0-1.13.39c-1.43.74-2.17,2.18-1.71,3.19s2,1.19,3.43.44,2.19-2.18,1.72-3.19a2,2,0,0,0-2.31-.83Zm38.1-2.74a4.6,4.6,0,0,0-1.13.39c-1.44.74-2.2,2.15-1.76,3.13s2,1.15,3.42.41,2.22-2.13,1.77-3.12c-.33-.74-1.24-1-2.3-.81Zm45.25-3.42a4.67,4.67,0,0,0-1.14.39c-1.45.72-2.24,2.09-1.82,3.05s2,1.1,3.42.38,2.25-2.1,1.82-3.05C2324,3575.79,2323.06,3575.52,2322,3575.73Zm-116.72,8.56c-2.22.21-4.47,3.09-3.34,5.59.71,1.55,1.85,1.47,4.16-.29s2.67-3,1.24-4.54a2.39,2.39,0,0,0-2.06-.76ZM1476.62,3610a3.14,3.14,0,0,0-1,.38,2.74,2.74,0,0,0-.78,3.74,2.61,2.61,0,0,0,3.64.85,2.75,2.75,0,0,0,.79-3.74,2.59,2.59,0,0,0-2.62-1.23Zm602-15.94a3.74,3.74,0,0,0-1.11.41,2.81,2.81,0,0,0-1.53,3.41c.52,1.1,2.09,1.33,3.48.55A2.82,2.82,0,0,0,2081,3595a2,2,0,0,0-2.37-1Zm223.66-14.85a4.4,4.4,0,0,0-1.14.39c-1.44.73-2.23,2.11-1.8,3.08s2,1.12,3.41.39,2.25-2.11,1.82-3.08c-.33-.72-1.22-1-2.29-.78Zm-129,11.24a3.84,3.84,0,0,0-1.12.39c-1.42.77-2.14,2.24-1.66,3.29s2,1.24,3.44.48,2.15-2.23,1.67-3.28a2,2,0,0,0-2.33-.88Zm9.51-.64a4.19,4.19,0,0,0-1.12.4c-1.42.76-2.14,2.23-1.67,3.28s2,1.23,3.44.47,2.15-2.23,1.68-3.27a2,2,0,0,0-2.33-.88Zm275.81-22.16a4.91,4.91,0,0,0-1.16.38c-1.49.68-2.37,1.93-2,2.78s1.87.95,3.37.26,2.38-1.93,2-2.78c-.27-.64-1.14-.85-2.21-.64Zm8.72.86a5.55,5.55,0,0,0-1.16.37c-1.49.69-2.39,1.93-2.05,2.77s1.86.93,3.36.25,2.4-1.93,2.05-2.77c-.26-.63-1.13-.83-2.2-.62Zm-394.82,32.42a3.85,3.85,0,0,0-1.11.41,2.85,2.85,0,0,0-1.55,3.42c.51,1.1,2.07,1.32,3.46.54s2.07-2.32,1.56-3.42a2,2,0,0,0-2.36-1Zm261-18.31c-2,.08-3,2.38-1.43,5.85,1.41,3.06,3.08,3.76,5.27,2.25s2.23-3.22.27-5.6c-1.46-1.78-2.92-2.55-4.11-2.5Zm-306.34,22.35c-.51-.15-.49.69-.09,2.64.45,2.16,1.52,3.36,2.39,2.63s.51-2.54-.8-4a5,5,0,0,0-1.5-1.31Zm170-10.63a17.14,17.14,0,0,0-4.11.94c-2.15.8-3.49,2.44-3,3.6,1.13,2.58,13.64.65,14.47-2.21.56-1.89-3.24-2.79-7.38-2.33Zm-16.63,3.88a4.19,4.19,0,0,0-1.12.4c-1.43.77-2.17,2.24-1.72,3.28s2,1.22,3.42.46,2.18-2.24,1.72-3.28a1.91,1.91,0,0,0-2.3-.86Zm-410.4,25.08a3.22,3.22,0,0,0-1.08.4,2.87,2.87,0,0,0-1.17,3.68,2.43,2.43,0,0,0,3.53.71,2.87,2.87,0,0,0,1.18-3.68,2.21,2.21,0,0,0-2.46-1.11Zm556.82-32.8a15.18,15.18,0,0,0-4.72,2.29c-2.89,1.88-6.44,3.52-7.88,3.65-3.51.32-7.18,4-6.33,6.23,1.09,2.91,4.75,1.75,13.15-4.05,6.6-4.56,8.76-8.69,5.78-8.12Zm-644.68,39.74a3.08,3.08,0,0,0-1,.4,2.86,2.86,0,0,0-1.07,3.72,2.48,2.48,0,0,0,3.56.76,2.86,2.86,0,0,0,1.06-3.72,2.28,2.28,0,0,0-2.5-1.16Zm533-24.48a4.44,4.44,0,0,0-1.14.4c-1.44.77-2.24,2.22-1.83,3.23s1.93,1.18,3.38.41,2.25-2.21,1.84-3.22c-.31-.76-1.2-1-2.25-.82Zm87.28-7.48a5.36,5.36,0,0,0-1.14.4c-1.47.75-2.32,2.13-2,3.09s1.87,1.08,3.35.34,2.33-2.13,2-3.08c-.28-.71-1.15-1-2.21-.75Zm-137.44,13.45a4.42,4.42,0,0,0-1.13.41c-1.43.77-2.2,2.26-1.77,3.3s1.95,1.22,3.39.44,2.21-2.25,1.77-3.29a1.84,1.84,0,0,0-2.26-.86ZM2224,3607a4.83,4.83,0,0,0-1.13.41c-1.45.76-2.26,2.21-1.86,3.21s1.91,1.17,3.36.4,2.27-2.2,1.87-3.21c-.3-.75-1.18-1-2.24-.81Zm117.85-10.57a5.51,5.51,0,0,0-1.16.4c-1.48.74-2.36,2.09-2,3s1.84,1,3.33.3,2.38-2.08,2-3c-.26-.69-1.12-.93-2.18-.71Zm-584.74,39.13a3.25,3.25,0,0,0-1.07.4,2.91,2.91,0,0,0-1.18,3.69,2.41,2.41,0,0,0,3.52.71,2.9,2.9,0,0,0,1.18-3.68A2.18,2.18,0,0,0,1757.12,3635.56Zm-77.87,4.36a3.12,3.12,0,0,0-1.06.4,2.89,2.89,0,0,0-1.07,3.72,2.45,2.45,0,0,0,3.54.76,2.88,2.88,0,0,0,1.07-3.72,2.26,2.26,0,0,0-2.48-1.16Zm670.43-40.6a5.51,5.51,0,0,0-1.16.4c-1.49.74-2.4,2.08-2.07,3s1.81,1,3.3.28,2.41-2.08,2.09-3c-.25-.68-1.1-.92-2.16-.69Zm-290.82,25a3.76,3.76,0,0,0-2.53,1.19c-2.75,3.18,4.7,6.85,16,7.75,17.71,1.43,21.77,1.88,22.6,2.86,1.3,1.51,4.68.9,5.2-.94,1-3.54-12.32-10.08-17.41-8.57-2.89.85-9.53.41-14.74-1-4.15-1.12-7.09-1.55-9.07-1.29Zm44.79-2.15c-2.51.27-5.21,2.32-4.45,4.18a3.12,3.12,0,0,0,2.89,1.78c3.28-.25,6.13-4.29,3.91-5.6a3.85,3.85,0,0,0-2.35-.36Zm10.19-.41a4.36,4.36,0,0,0-1.12.41c-1.42.79-2.17,2.3-1.73,3.37s2,1.26,3.38.47,2.18-2.29,1.74-3.36a1.85,1.85,0,0,0-2.27-.89Zm345.46-32.55a6,6,0,0,0-1.17.4c-1.53.7-2.51,1.95-2.26,2.77s1.73.89,3.27.18,2.53-1.95,2.26-2.77c-.2-.62-1-.81-2.1-.58ZM2359,3601.7c-2.52.34-5.45,2.22-4.93,3.78a2.54,2.54,0,0,0,2.63,1.41c3.28-.36,6.61-3.95,4.58-5a4.15,4.15,0,0,0-2.28-.21Zm-210.55,19.56a4.46,4.46,0,0,0-1.13.42c-1.43.78-2.21,2.27-1.8,3.32s1.94,1.22,3.37.44,2.22-2.27,1.8-3.32a1.81,1.81,0,0,0-2.24-.86Zm32.19-.56a4.46,4.46,0,0,0-1.13.42c-1.44.77-2.25,2.25-1.86,3.27s1.9,1.19,3.34.42,2.27-2.25,1.87-3.28c-.3-.77-1.17-1.05-2.22-.83Zm19.63,0c-2.5.31-5.31,2.31-4.66,4.06a2.79,2.79,0,0,0,2.75,1.63c3.28-.29,6.35-4.19,4.23-5.39a3.87,3.87,0,0,0-2.32-.3Zm148.38-14.05a5.93,5.93,0,0,0-1.16.4c-1.49.75-2.43,2.09-2.13,3s1.77,1,3.28.26,2.45-2.08,2.14-3c-.22-.68-1.06-.9-2.13-.67Zm119.5-13.58a5.43,5.43,0,0,0-1.18.39c-1.53.71-2.55,2-2.32,2.76s1.69.86,3.23.15,2.58-1.94,2.34-2.75C2470.05,3593,2469.23,3592.86,2468.16,3593.1Zm-100,12.93a6.67,6.67,0,0,0-2.41.71c-2.43,1.19-2.83,2.24-1.73,4s2.52,1.7,4.88.16c3.53-2.32,2.35-5.14-.74-4.89ZM1680.71,3652a3.08,3.08,0,0,0-1,.4,2.89,2.89,0,0,0-1.08,3.72,2.4,2.4,0,0,0,3.51.75,2.89,2.89,0,0,0,1.09-3.72,2.24,2.24,0,0,0-2.47-1.15Zm507.93-27.88a4.48,4.48,0,0,0-1.14.41c-1.45.78-2.27,2.25-1.89,3.27s1.87,1.18,3.32.4,2.29-2.25,1.91-3.26c-.29-.77-1.15-1-2.2-.82Zm-15.53,2.68c-7.75,2.63-18.56,8.23-22.31,15.78.51,1.44,3.76.54,10-2.77,12.93-6.82,17-10.44,14.22-12.86a2.44,2.44,0,0,0-1.94-.15Zm-64.69,6a4.54,4.54,0,0,0-1.12.42c-1.42.79-2.19,2.31-1.78,3.38s1.93,1.25,3.35.46,2.21-2.31,1.79-3.38a1.8,1.8,0,0,0-2.24-.88Zm46.77-3.79a4.11,4.11,0,0,0-1.13.42c-1.44.78-2.25,2.27-1.86,3.31s1.9,1.2,3.34.42,2.26-2.27,1.86-3.31c-.29-.78-1.16-1.06-2.21-.84Zm-16.94,3a8,8,0,0,0-3.2.92c-1.61.89-2.64,2.47-2.25,3.5.94,2.49,6.6,1.93,9.3-.92,2-2.07-.67-3.74-3.85-3.5Zm-19.37,2.11a11.83,11.83,0,0,0-3.36,1,2.29,2.29,0,0,0-1.43,2.62c.91,2.37,11.44.6,10.86-1.81-.32-1.31-2.48-2-5-1.89-.38,0-.72,0-1.1.09Zm240.27-21.37a5.85,5.85,0,0,0-1.17.41c-1.51.75-2.48,2.08-2.22,3s1.73,1,3.25.23,2.5-2.08,2.23-3c-.2-.67-1-.88-2.09-.65Zm-230,26.79a4.46,4.46,0,0,0-1.13.42c-1.43.8-2.24,2.3-1.86,3.35s1.88,1.22,3.32.43,2.26-2.3,1.87-3.35c-.29-.78-1.16-1.07-2.2-.85Zm13.26.92a4.5,4.5,0,0,0-1.13.43c-1.44.79-2.27,2.28-1.9,3.33s1.86,1.2,3.31.41,2.28-2.29,1.91-3.33c-.29-.78-1.15-1.06-2.19-.84ZM2368,3617a5.33,5.33,0,0,0-1.17.42c-1.52.74-2.52,2.07-2.29,3s1.69,1,3.22.21,2.54-2.07,2.3-3c-.19-.66-1-.87-2.06-.63Zm-53,9.8a5.45,5.45,0,0,0-1.16.42c-1.51.76-2.48,2.13-2.23,3s1.71,1,3.22.25,2.5-2.13,2.24-3c-.19-.68-1-.91-2.07-.67Zm40.79-3.06a5.33,5.33,0,0,0-1.17.42c-1.52.75-2.54,2.09-2.32,3s1.67.95,3.2.2,2.56-2.09,2.33-3c-.17-.66-1-.87-2-.63Zm-157.93,19.25a.85.85,0,0,0-.69,1.25c.35,1.12-2.62,3.85-6.58,6.07s-7,4.73-6.72,5.55-1.63,2.85-4.11,4.48c-3.27,2.14-4.12,3.58-3.18,5.3a2.68,2.68,0,0,1-1,3.64c-4.5,2.45-17.48,1.79-17.57-.91-.12-3.87-5.14-3.85-6.7,0-.71,1.77-4.19,4.52-7.74,6.14s-6.5,4.05-6.51,5.57-1.22,3.91-2.74,5.42c-2,2-3.15,1.79-4.18-.79-1.37-3.44-1.5-3.44-3.41.57a61.23,61.23,0,0,0-2.72,6.64c-.78,2.59-19.06,15-22.7,15.47-10.44,4-20.15,9.68-29.94,15.05-10.11,5.67-14.68,13.29-11.77,18.95,1.06,2.08.44,5-1.58,7.52-3.14,3.85-3.38,3.88-4.45.29-.65-2.2-1.71-2.63-2.45-1s-.61,5.44.19,8.62c.9,13.47-5,29.72-12.19,40.88-2.91,4-2.82,5.76.3,7.44,3.79,2,4.66,1.74,14.83-4.61,6.05-3.78,13.81-7.29,17.52-8,4.22-.75,9.83-3.49,15.45-7.49,4.85-3.45,11.25-6.7,14.16-7.22a75.82,75.82,0,0,0,13.08-4.33c11.74-5,24-1.58,22.22,6.3-.72,3.27-.89,5.81-.27,5.71s5.16-3.89,10-8.37c6.54-6,9-7.67,9.54-6.33s-.88,3.34-5.45,7.56c-8.12,7.5-9,8.68-3.3,5.05,3.39-2.18,4.53-2.4,4.35-1a5.87,5.87,0,0,1-2.29,3.37c-1.12.77-1.74,3.58-1.5,6.23a12.42,12.42,0,0,1-1.9,7.63c-3.51,4.39,6.59,4,13.56-.43,5-3.23,5.8-3.28,6-.58.35,3.94-.06,4,9.44-2.81,4.77-3.43,9.68-6.07,11.91-6.41,2.6-.4,5.07-1.88,7.75-4.64,9.76-9.66,20.29-18.51,30.71-27.43,13.57-11.87,38.79-32.7,43.7-50.06-2.43.89-8.91-4.25-7.69-6.09.59-.89.16-3.53-1-5.92s-1.3-5.18-.16-6.14.37-2-1.7-2.3c-5.1-.77-4.8-12.92.16-22.36,2.69-5.1,3.08-8.63,1.27-10.59-1.49-1.61-2.09-5.68-1.34-9s1.15-6.89.9-7.85c-.63-2.34-11.63,11.15-15.52,18.72-5.5,9-14.46,21.51-21.94,24.46-.53.2-5-2.74-9.61-6.43-7.9-6.27-8.32-7.21-4.18-13.44,2.44-3.67,5.71-7.65,7.3-8.84,3.84-2.87,6-8.11,2.62-6.31-1.45.77-2.84.6-3.15-.4s-2.45-1.51-4.7-1.16a29.35,29.35,0,0,1-8.91-.44,9,9,0,0,0-3.5-.26Zm-505.39,35.25a3,3,0,0,0-1,.4,3,3,0,0,0-1.14,3.72,2.34,2.34,0,0,0,3.45.73,3,3,0,0,0,1.15-3.72,2.15,2.15,0,0,0-2.42-1.13Zm6.47,4.62a3.27,3.27,0,0,0-1,.41,3,3,0,0,0-1.16,3.72,2.33,2.33,0,0,0,3.44.72,3,3,0,0,0,1.16-3.72,2.14,2.14,0,0,0-2.4-1.13Zm27.86,1.36c-.73.15-1.35,1.17-1.53,2.75-.74,6.51-8.83,15.79-17.57,20.23-9.33,4.49-14.35,13.95-13.52,24.18a21,21,0,0,1-4.07,14.19c-4.65,6.54-5,12.65-1.94,26.17,1.24,5.49,2.38,6.22,7.41,4.69,3.27-1,6.84-3.06,8-4.55,7.06-11.76,10.59-26.3,14.88-39.13,3.51-10.66,7.45-21.18,8.76-23.36,2.78-4.61,3.09-23.27.39-25a1,1,0,0,0-.77-.13Zm-21.69,5.66a3.36,3.36,0,0,0-1,.41,3,3,0,0,0-1.18,3.72,2.31,2.31,0,0,0,3.43.71,3,3,0,0,0,1.18-3.71,2.09,2.09,0,0,0-2.38-1.13Zm514.82-37.18a5.44,5.44,0,0,0-1.15.43c-1.48.8-2.43,2.24-2.17,3.21s1.71,1.09,3.2.3,2.45-2.23,2.18-3.2c-.2-.74-1-1-2.06-.74Zm283.72-36.88a6.64,6.64,0,0,0-1.2.42c-1.61.72-2.82,1.91-2.75,2.65s1.3.8,2.77.14,2.72-.55,2.78.25,1.46.84,3.07.12,2.85-1.9,2.79-2.64-1.3-.78-2.77-.12-2.72.54-2.79-.27C2505.46,3615.72,2504.69,3615.52,2503.62,3615.77Zm-126.2,25.54a5.87,5.87,0,0,0-1.18.43c-1.56.76-2.69,2.07-2.57,2.92s1.52.87,3.09.11,2.71-2.07,2.58-2.92c-.1-.63-.86-.81-1.92-.54ZM1753,3707.16a3.45,3.45,0,0,0-1,.42,3.08,3.08,0,0,0-1.3,3.7,2.22,2.22,0,0,0,3.35.67,3.09,3.09,0,0,0,1.31-3.7,2,2,0,0,0-2.31-1.09Zm622-58.88a5.94,5.94,0,0,0-1.18.44c-1.57.77-2.73,2.08-2.64,2.92s1.47.86,3.05.08,2.75-2.07,2.65-2.91c-.07-.63-.83-.8-1.88-.53Zm68.14-10.85a6.8,6.8,0,0,0-1.2.44c-1.6.75-2.83,2-2.78,2.78s1.41.76,3,0,2.85-2,2.8-2.77c0-.58-.77-.72-1.83-.45Zm-63.78,13.44a5.94,5.94,0,0,0-1.18.44c-1.58.77-2.76,2.07-2.68,2.91s1.44.84,3,.06,2.78-2.07,2.7-2.9c-.06-.62-.8-.79-1.86-.51Zm-1756.24.73a1.93,1.93,0,0,0-.8.12c-.77.4-.22,1.58,1.17,2.64s3.13,1.58,3.9,1.19.21-1.59-1.17-2.65a6,6,0,0,0-3.1-1.3Zm1809.27-7.83a6.8,6.8,0,0,0-1.2.44c-1.6.76-2.85,2-2.82,2.79s1.38.77,3,0,2.87-2,2.83-2.79C2434.15,3643.63,2433.42,3643.49,2432.37,3643.77Zm-1800,12.55a1.85,1.85,0,0,0-.79.12c-.76.4-.21,1.59,1.19,2.66s3.13,1.58,3.89,1.19.2-1.59-1.19-2.66a6,6,0,0,0-3.1-1.31Zm1830.7-7.87a8.3,8.3,0,0,0-1.21.45c-1.64.76-3,2-3,2.71s1.26.68,2.91-.08,3-2,3-2.71C2464.84,3648.27,2464.15,3648.16,2463.1,3648.45Zm-1759,31.1a1.68,1.68,0,0,0-.78.14c-.76.43-.21,1.68,1.17,2.79s3.09,1.64,3.84,1.22.21-1.69-1.16-2.8a5.65,5.65,0,0,0-3.07-1.35Zm1059.89,57.91a3.34,3.34,0,0,0-1,.42,3.2,3.2,0,0,0-1.39,3.69c.51,1.21,2,1.47,3.27.64a3.21,3.21,0,0,0,1.4-3.69,1.86,1.86,0,0,0-2.24-1.06Zm585.21-65.39a6.91,6.91,0,0,0-2.08.87c-2.53,1.58-2.69,2.91-.67,4.34,3.38,2.38,5,2.26,8.68-.5,3.27-2.47-1.06-5.32-5.23-4.83-.24,0-.46.07-.7.12Zm-594.53,68.24a3.25,3.25,0,0,0-1,.42,3.2,3.2,0,0,0-1.37,3.7c.51,1.21,2,1.47,3.26.64a3.2,3.2,0,0,0,1.39-3.69,1.86,1.86,0,0,0-2.24-1.07ZM2452,3654.77a7.73,7.73,0,0,0-1.21.46c-1.64.76-3,2-3.07,2.73s1.23.68,2.88-.09,3-2,3.08-2.73C2453.68,3654.59,2453,3654.48,2452,3654.77ZM684.33,3679.64a1.64,1.64,0,0,0-.77.13c-.73.4-.15,1.63,1.26,2.73s3.12,1.64,3.85,1.23.14-1.64-1.25-2.74a6,6,0,0,0-3.09-1.35Zm40.67,13.6a1.6,1.6,0,0,0-.76.13c-.74.43-.16,1.69,1.23,2.82s3.1,1.66,3.83,1.24.15-1.7-1.23-2.82a5.61,5.61,0,0,0-3.07-1.37Zm36,13a1.46,1.46,0,0,0-.76.15c-.73.44-.16,1.73,1.22,2.87s3.08,1.69,3.8,1.25.15-1.74-1.22-2.88a5.51,5.51,0,0,0-3-1.39Zm22.26,7.26a1.5,1.5,0,0,0-.76.15c-.73.45-.16,1.76,1.21,2.92s3,1.69,3.78,1.25.16-1.77-1.2-2.93a5.45,5.45,0,0,0-3-1.39Zm111.56,25a1.46,1.46,0,0,0-.78.19c-.77.51-.32,1.92,1,3.12s2.93,1.74,3.7,1.22.31-1.92-1-3.12a4.63,4.63,0,0,0-2.93-1.41Zm-23.74.24a1.5,1.5,0,0,0-.76.18c-.75.49-.25,1.88,1.07,3.07s3,1.74,3.71,1.24.24-1.88-1.06-3.07a4.92,4.92,0,0,0-3-1.42ZM1052,3809.93a1.31,1.31,0,0,0-.75.23c-.75.56-.34,2.06.86,3.33s2.76,1.79,3.51,1.22.34-2.07-.85-3.33a4.06,4.06,0,0,0-2.77-1.45Zm1269.16-67.56a1,1,0,0,0-.38.14c-1.09.64-2.58,2.94-3.36,5.07-2.23,6-6.87,10.47-15.77,16.17-7.32,4.69-7.7,5.08-5.13,4.82,1.64-.17.95,1.21-1.69,3.38-6.92,5.68-1.68,3.18,8.05-3.79,4.78-3.42,9.44-6.34,10.39-6.48a9.31,9.31,0,0,0,3.62-1.83c1.07-.88,4.26-3.19,7-5.09,3.94-2.72,3.91-3,0-1.19-3.54,1.6-4,1.28-1.81-1,2.4-2.52,2-2.61-2-.43s-4.55,2.18-2.71-.06c3.27-4,5.39-10.05,3.74-9.68Zm-183.67,47.14a6.77,6.77,0,0,0-1.13.51c-1.54.88-2.87,2.35-3,3.27s1,.92,2.59,0,2.89-2.34,3-3.27c.09-.69-.51-.86-1.48-.54Zm33.11,13.38a7.8,7.8,0,0,0-1.14.52,8.27,8.27,0,0,0-3.37,3.19c-.29.86.8.79,2.4-.11s3.1-2.32,3.39-3.18c.21-.64-.32-.77-1.28-.42Zm-19.49,6.48a9.15,9.15,0,0,0-1.13.53,8,8,0,0,0-3.31,3.22c-.27.88.82.82,2.4-.08s3.07-2.34,3.33-3.22c.2-.65-.33-.79-1.29-.45Zm.11,6c-3.12.9-3.79,1.76-5.32,4.43-1.21,2.1-3.24,5.28-4.42,7-2.22,3.27,6.06,1.12,9.71-2.48,1-1,4-3.58,6.66-5.74,6.5-5.31,6-6.11-2.6-4.2-1.68.37-3,.67-4,1ZM2281.46,3778c-3.43,1.26-13.1,6.93-16.67,9.89a134.21,134.21,0,0,1-12,7.36q-14.46,8.28-28.46,17.39c-1.68,1.09-14.57,8.53-8.84,6.46,1.77-1,3.65-1.45,4.15-1.07,1.23.94,3.9-.09,9.64-3.61a91.52,91.52,0,0,0,12.06-8.49c1.93-1.52,8.26-5.6,14-9s10.79-6.65,11.32-7.37a19.79,19.79,0,0,1,5.29-3.39c5.38-2.55,12.59-8.29,10.46-8.41a.7.7,0,0,0-.35,0,4.52,4.52,0,0,0-.61.19Zm-1178.41,96.27c-1.75-.24-1.46,2.56,1.48,5.68,1.83,1.93,2.75,2.09,3.36.57s-.08-2.92-2.47-4.95a4.89,4.89,0,0,0-2.37-1.3Zm1110.16-51.44c-.31.14-.74.34-1.16.58a18.46,18.46,0,0,0-4.17,3c-.62.73.29.53,2-.41a18.35,18.35,0,0,0,4.18-3c.47-.55.1-.58-.84-.18ZM1121.83,3916.4a.82.82,0,0,0-.6.2c-.55.53.06,2,1.3,3.33s2.67,1.87,3.21,1.33-.06-2-1.29-3.33a4.32,4.32,0,0,0-2.62-1.53Zm643.09,27.28c-2.05.14-4.16,3.74-3.24,7.07,1.1,4,2.62,3.73,7.13-1.1,2.8-3,3.28-4.86,1-3.27.05-.21-.23-.08-.82.46-.55,0-1.44-.84-2.19-2a2.07,2.07,0,0,0-1.93-1.12Zm-636.75-16a.85.85,0,0,0-.59.19c-.52.54.12,2,1.37,3.33s2.66,1.88,3.17,1.35-.11-2-1.35-3.33a4.34,4.34,0,0,0-2.6-1.54Zm1053.19-84.37c-.31.13-.73.35-1.15.58a21.49,21.49,0,0,0-4.25,3c-.67.73.19.52,1.88-.43a21.87,21.87,0,0,0,4.27-3c.5-.55.16-.58-.75-.16ZM1134.66,3939a.79.79,0,0,0-.57.19c-.49.53.16,2,1.42,3.33s2.65,1.89,3.14,1.36-.16-2-1.41-3.33a4.41,4.41,0,0,0-2.58-1.55Zm74.4,18.67a.92.92,0,0,0-.6.23c-.57.59-.18,2,.84,3.21s1.36,2.69.76,3.33-.14,2.25,1,3.56,2.46,1.87,3,1.28.15-2-.87-3.21-1.36-2.69-.75-3.33.18-2.26-.94-3.57a3.59,3.59,0,0,0-2.44-1.5Zm-6.82.51c-1.91-.17-2.18,2.82.5,5.9,1.84,2.11,2.78,2.27,3.65.55s.29-3.18-1.77-5.09a4.45,4.45,0,0,0-2.38-1.36Zm-52.41-2.23c-.54-.12-1-.1-1.21.15-.82.93.23,2.25,4,5.14,2.81,2.14,5.19,4.3,5.3,4.82a8.91,8.91,0,0,0,1,2.24,1,1,0,0,0,1.66.2c.61-.72-.33-2.23-3-4.72-2.13-2-3.23-3.5-2.46-3.32s-.17-1.05-2-2.67a7.81,7.81,0,0,0-3.27-1.84Zm620.39,19.61a3.42,3.42,0,0,0-.91.49,5.32,5.32,0,0,0-2.13,3.68c0,1.13,1,1.27,2.25.36a5.34,5.34,0,0,0,2.15-3.69C1771.57,3975.54,1771,3975.26,1770.22,3975.54Zm-598.73-11.13c-.7.09.2,2,2.27,5.63,3,5.24,3,6.05-.53,4.85-2.41-.83-3.18-.39-1.82,1.06a16.66,16.66,0,0,0,7.15,3.62c2.64.6,5.73,2.11,6.89,3.37,2.33,2.53,5.21,3,6.74,1.13.67-.82-2.39-4.34-9.25-10.52-6.22-5.61-9.7-8.55-11-9.05a1,1,0,0,0-.43-.09Zm135.39,30.53a1.86,1.86,0,0,0-1.7.34c-.81.85.2,2.64,2.83,4.94,4.9,4.3,8.17,5.05,8.56,1.92.27-2.24-6.25-6.63-9.69-7.2Zm-109.76-14.5a.69.69,0,0,0-.54.21c-.48.55.13,2.09,1.31,3.4s2.5,1.89,3,1.34-.13-2.1-1.31-3.41a4,4,0,0,0-2.43-1.54Zm-14,4.63c-1.68-.3-2.05,1.32.06,3.59a10.44,10.44,0,0,0,3.65,2.7c2.28.54,1.12-3.31-1.63-5.31a5.25,5.25,0,0,0-2.08-1Z" transform="translate(-492.17 -2759.41)"/></g></svg>