<svg id="Layer_1" data-name="Layer 1" xmlns="http://www.w3.org/2000/svg" xmlns:xlink="http://www.w3.org/1999/xlink" width="612" height="612" viewBox="0 0 612 612">
  <defs>
    <radialGradient id="radial-gradient" cx="306" cy="306" fx="285.370894941257" fy="295.1876826611913" r="50" gradientUnits="userSpaceOnUse">
      <stop offset="0" stop-color="#fff"/>
      <stop offset="1" stop-color="red"/>
    </radialGradient>
    <radialGradient id="radial-gradient-2" cx="345" cy="36" fx="336.06866537866756" r="24" gradientUnits="userSpaceOnUse">
      <stop offset="0.17" stop-color="#fff"/>
      <stop offset="0.23" stop-color="#f8ffff"/>
      <stop offset="0.32" stop-color="#e6ffff"/>
      <stop offset="0.42" stop-color="#c8ffff"/>
      <stop offset="0.54" stop-color="#9effff"/>
      <stop offset="0.66" stop-color="#67ffff"/>
      <stop offset="0.79" stop-color="#26ffff"/>
      <stop offset="0.86" stop-color="aqua"/>
    </radialGradient>
    <radialGradient id="radial-gradient-3" cx="195" cy="486" fx="186.06866537866756" xlink:href="#radial-gradient-2"/>
    <radialGradient id="radial-gradient-4" cx="106" cy="250" fx="97.06866537866756" xlink:href="#radial-gradient-2"/>
    <radialGradient id="radial-gradient-5" cx="482" cy="417" fx="473.06866537866756" xlink:href="#radial-gradient-2"/>
  </defs>
  <g id="p4">
    <path d="M683,307.24c81.49,0,158.06,8.26,215.62,23.26C954.15,345,986,364.48,986,384s-31.85,39-87.38,53.5c-57.56,15-134.13,23.26-215.62,23.26S524.94,452.5,467.38,437.5C411.85,423,380,403.52,380,384s31.85-39,87.38-53.5c57.56-15,134.13-23.26,215.62-23.26m0-3C514,304.24,377,340,377,384s137,79.76,306,79.76S989,428.05,989,384s-137-79.76-306-79.76Z" transform="translate(-377 -78)" style="fill: #fff"/>
  </g>
  <g id="p3">
    <path d="M836.21,191.41v3c11.83,0,20.94,3.12,27.1,9.28,7.64,7.63,10.58,19.69,8.77,35.84s-8.29,35.57-19.24,57.67c-22.69,45.8-61.9,97.73-110.4,146.24-38.77,38.77-79.81,71.69-118.69,95.2-37.27,22.54-70.64,35-94,35-11.83,0-20.95-3.12-27.11-9.28-7.64-7.63-10.58-19.69-8.77-35.84s8.29-35.57,19.24-57.67c22.69-45.8,61.9-97.73,110.4-146.24,38.77-38.77,79.81-71.69,118.69-95.19,37.27-22.54,70.64-35,94-35v-3m0,0c-48.68,0-134.42,50.69-214.76,131-100.76,100.76-154.87,210-120.87,244,6.89,6.89,16.85,10.16,29.23,10.16,48.68,0,134.42-50.69,214.76-131,100.76-100.76,154.87-210,120.87-244-6.89-6.89-16.85-10.16-29.23-10.16Z" transform="translate(-377 -78)" style="fill: #fff"/>
  </g>
  <g id="p1">
    <path d="M683,81c21.48,0,42.86,31.87,58.67,87.45C758,226,767.06,302.53,767.06,384s-9,158-25.39,215.55C725.86,655.13,704.48,687,683,687s-42.86-31.87-58.67-87.45C608,542,598.94,465.47,598.94,384s9-158,25.39-215.55C640.14,112.87,661.52,81,683,81m0-3c-48.08,0-87.06,137-87.06,306s39,306,87.06,306,87.06-137,87.06-306S731.08,78,683,78Z" transform="translate(-377 -78)" style="fill: #fff"/>
  </g>
  <g id="p2">
    <path d="M529.8,191.41v3c23.31,0,56.68,12.41,94,35,38.88,23.51,79.92,56.43,118.69,95.2,48.5,48.51,87.71,100.44,110.4,146.24,10.95,22.1,17.42,41.5,19.24,57.67s-1.13,28.21-8.77,35.84c-6.16,6.16-15.28,9.28-27.11,9.28-23.31,0-56.68-12.41-94-35-38.87-23.51-79.92-56.43-118.69-95.2C575.06,394.93,535.85,343,513.16,297.2c-10.95-22.1-17.42-41.5-19.24-57.67s1.13-28.21,8.77-35.84c6.16-6.16,15.28-9.28,27.11-9.28v-3m0,0c-12.37,0-22.35,3.27-29.23,10.16-34,34,20.11,143.23,120.87,244,80.34,80.34,166.08,131,214.76,131,12.37,0,22.35-3.27,29.23-10.16,34-34-20.11-143.23-120.87-244-80.34-80.34-166.08-131-214.76-131Z" transform="translate(-377 -78)" style="fill: #fff"/>
  </g>
  <g id="nucleus">
    <circle cx="306" cy="306" r="50" style="fill: url(#radial-gradient)"/>
  </g>
  <g id="e1">
    <circle cx="345" cy="36" r="24" style="fill: url(#radial-gradient-2)"/>
  </g>
  <g id="e3">
    <circle cx="195" cy="486" r="24" style="fill: url(#radial-gradient-3)"/>
  </g>
  <g id="e4">
    <circle cx="106" cy="250" r="24" style="fill: url(#radial-gradient-4)"/>
  </g>
  <g id="e2">
    <circle cx="482" cy="417" r="24" style="fill: url(#radial-gradient-5)"/>
  </g>
</svg>
